<?xml version="1.0" encoding="UTF-8"?>
<svg version="1.1" xmlns="http://www.w3.org/2000/svg" width="1024" height="1024">
<path d="M0 0 C3.63257939 2.87062371 5.71308632 5.56733283 6.49682617 10.12841797 C6.75743949 17.97967423 4.4622892 23.98604694 1.25778198 31.07937622 C-0.17802231 34.26803857 -1.53882072 37.48859674 -2.90625 40.70703125 C-3.17375565 41.33316818 -3.44126129 41.95930511 -3.71687317 42.60441589 C-6.79920533 49.86375995 -9.22684603 57.12394566 -10.8984375 64.828125 C-11.05634766 65.55064453 -11.21425781 66.27316406 -11.37695312 67.01757812 C-19.4675886 106.13896365 -12.30738972 147.20538876 9.1015625 180.828125 C26.61331601 207.26377848 53.23794581 227.01789437 84.1015625 234.828125 C85.17664063 235.12589844 86.25171875 235.42367187 87.359375 235.73046875 C119.69269402 243.57871285 149.45572381 233.63549457 177.05859375 217.0078125 C184.04521753 212.67787594 190.83914131 208.02949165 197.56762695 203.31030273 C207.70441043 196.34174784 218.69879975 191.35894332 231.2265625 193.31640625 C240.49656581 195.66733257 247.00865258 200.7569672 254.1015625 206.828125 C255.20752674 207.75617042 256.31430007 208.68325245 257.421875 209.609375 C259.62390818 211.45804356 261.81544661 213.31821589 264 215.1875 C267.63117544 218.28973348 271.32899673 221.30736806 275.03125 224.32421875 C286.14284938 233.38596837 297.22503809 242.4847277 308.1015625 251.828125 C309.0296875 252.61960937 309.9578125 253.41109375 310.9140625 254.2265625 C319.25931104 261.50381793 326.02728723 269.36073401 329.0390625 280.203125 C329.23147927 291.3632977 322.83664922 300.09600323 315.73046875 308.1484375 C313.32184095 310.63215442 310.71922358 312.85733174 308.08203125 315.09375 C306.26977691 316.68081297 304.62993874 318.32896122 302.9765625 320.078125 C298.07194551 325.06076999 292.42982112 329.19269025 286.89501953 333.44042969 C285.23931999 334.72153453 283.60314706 336.02299351 281.97265625 337.3359375 C242.18831198 368.93984827 192.42732349 388.850617 142.1015625 394.828125 C141.29807373 394.92456299 140.49458496 395.02100098 139.66674805 395.12036133 C131.17975305 396.01789362 122.68781818 396.0288911 114.1640625 396.015625 C113.38644562 396.01468842 112.60882874 396.01375183 111.80764771 396.01278687 C67.7411864 395.89787862 24.68219243 385.21766695 -13.96582031 363.875 C-16.46504676 362.52119972 -19.01807487 361.29571336 -21.5859375 360.078125 C-25.3112032 358.23793351 -28.46816654 356.04417851 -31.7265625 353.4765625 C-34.24752501 351.56317009 -36.86770339 349.86193414 -39.5234375 348.140625 C-51.18545484 340.41490571 -61.82965067 331.52353284 -71.8984375 321.828125 C-72.47658203 321.27189453 -73.05472656 320.71566406 -73.65039062 320.14257812 C-80.95023377 313.07695455 -87.73556882 305.92364767 -93.8984375 297.828125 C-95.18922405 296.26489785 -96.4809179 294.70241952 -97.7734375 293.140625 C-120.62149675 264.44667559 -136.44412542 228.87202856 -142.8984375 192.828125 C-143.12273437 191.64863281 -143.34703125 190.46914063 -143.578125 189.25390625 C-146.7406672 169.21725187 -146.60790985 146.59536075 -141.8984375 126.828125 C-141.67269043 125.87276855 -141.44694336 124.91741211 -141.21435547 123.93310547 C-137.614955 109.15723003 -132.79699908 95.3808689 -125.8984375 81.828125 C-125.36114014 80.76392334 -125.36114014 80.76392334 -124.81298828 79.67822266 C-116.77925435 64.01152231 -106.0815209 50.46665077 -93.8984375 37.828125 C-93.23585938 37.11398437 -92.57328125 36.39984375 -91.890625 35.6640625 C-73.66750572 16.52597489 -27.06819718 -16.70876369 0 0 Z " fill="#B3C2E2" transform="translate(406.8984375,410.171875)"/>
<path d="M0 0 C0.83354004 0.17370117 1.66708008 0.34740234 2.52587891 0.52636719 C16.87260902 3.60452741 30.40729852 8.52614925 44 14 C44.76328613 14.30695801 45.52657227 14.61391602 46.31298828 14.93017578 C78.43839081 28.02716759 128.5673107 52.66181461 145.5 84.8515625 C148.23760088 91.75259804 149.21516565 97.47601963 146.75 104.625 C143.47217168 110.94652605 139.66543164 115.58592565 134.4375 120.3125 C133.81834717 120.88009033 133.19919434 121.44768066 132.5612793 122.0324707 C128.05525187 126.13028254 123.40324746 130.01367578 118.6484375 133.8203125 C115.82174165 136.1467082 113.12941098 138.5817193 110.4375 141.0625 C106.38623591 144.78328123 102.24253504 148.28328727 97.91796875 151.6796875 C94.87914057 154.09610509 91.88787267 156.563514 88.8996582 159.04199219 C85.27838008 162.04260538 81.64114023 165.02353961 78 168 C77.3915625 168.49918945 76.783125 168.99837891 76.15625 169.51269531 C65.23473484 178.41745341 54.69462687 186.01101822 40 185 C29.35993345 183.07453555 21.20510587 177.95711912 12.71875 171.5234375 C-2.66621737 159.88663707 -19.38465618 150.80039886 -37 143 C-37.97195313 142.55398438 -38.94390625 142.10796875 -39.9453125 141.6484375 C-96.78277823 116.54927172 -167.70064598 118.01634203 -225.375 139.625 C-243.45305272 146.65688659 -260.91497254 155.14026233 -277 166 C-279.01432952 167.35342395 -281.02875554 168.70669049 -283.04443359 170.05810547 C-284.29397378 170.89955613 -285.53953061 171.74697268 -286.77978516 172.60205078 C-292.59580826 176.56249342 -298.47354052 180.07892342 -305.5 181.25 C-306.78390625 181.47429687 -306.78390625 181.47429687 -308.09375 181.703125 C-308.7228125 181.80109375 -309.351875 181.8990625 -310 182 C-313.58753129 177.87488757 -316.94609506 174.00509796 -317.22265625 168.296875 C-315.0742083 146.13393826 -298.69822139 122.79349256 -285 106 C-284.236875 105.04480469 -283.47375 104.08960938 -282.6875 103.10546875 C-278.31258082 97.6747965 -273.76303889 92.43920007 -269.06640625 87.28515625 C-267.25495398 85.28194344 -265.49233978 83.25067984 -263.75 81.1875 C-259.86075325 76.62326002 -255.67796228 72.74236983 -251 69 C-250.28199219 68.26523437 -249.56398438 67.53046875 -248.82421875 66.7734375 C-245.48543594 63.49468813 -241.95163796 60.56156188 -238.3125 57.625 C-237.59626465 57.0470166 -236.8800293 56.4690332 -236.14208984 55.87353516 C-230.90644354 51.67626641 -225.64432661 47.63816257 -220 44 C-219.40622559 43.6169873 -218.81245117 43.23397461 -218.20068359 42.83935547 C-153.06542068 1.15850779 -75.99908633 -15.91618496 0 0 Z " fill="#B2C1E1" transform="translate(586,218)"/>
<path d="M0 0 C3.63257939 2.87062371 5.71308632 5.56733283 6.49682617 10.12841797 C6.75743949 17.97967423 4.4622892 23.98604694 1.25778198 31.07937622 C-0.17802231 34.26803857 -1.53882072 37.48859674 -2.90625 40.70703125 C-3.17375565 41.33316818 -3.44126129 41.95930511 -3.71687317 42.60441589 C-6.79920533 49.86375995 -9.22684603 57.12394566 -10.8984375 64.828125 C-11.05634766 65.55064453 -11.21425781 66.27316406 -11.37695312 67.01757812 C-19.4675886 106.13896365 -12.30738972 147.20538876 9.1015625 180.828125 C26.61331601 207.26377848 53.23794581 227.01789437 84.1015625 234.828125 C85.17664063 235.12589844 86.25171875 235.42367187 87.359375 235.73046875 C119.69269402 243.57871285 149.45572381 233.63549457 177.05859375 217.0078125 C184.04521753 212.67787594 190.83914131 208.02949165 197.56762695 203.31030273 C207.70441043 196.34174784 218.69879975 191.35894332 231.2265625 193.31640625 C240.49656581 195.66733257 247.00865258 200.7569672 254.1015625 206.828125 C255.20752674 207.75617042 256.31430007 208.68325245 257.421875 209.609375 C259.62390818 211.45804356 261.81544661 213.31821589 264 215.1875 C267.63117544 218.28973348 271.32899673 221.30736806 275.03125 224.32421875 C286.14284938 233.38596837 297.22503809 242.4847277 308.1015625 251.828125 C309.0296875 252.61960937 309.9578125 253.41109375 310.9140625 254.2265625 C317.63963711 260.09142369 323.82770447 266.35461009 327.1015625 274.828125 C326.66796875 277 326.66796875 277 326.1015625 278.828125 C325.86824219 278.24546875 325.63492187 277.6628125 325.39453125 277.0625 C318.5380064 261.6534901 303.4049583 249.66810504 290.16625977 239.7355957 C285.8360529 236.46344263 281.73883663 232.97415898 277.6640625 229.390625 C271.78509463 224.22956085 265.77678463 219.30535519 259.57421875 214.5390625 C257.17156455 212.68773708 254.84107294 210.77507223 252.53515625 208.8046875 C244.52276638 202.04091058 237.05948143 197.10824232 226.0390625 197.890625 C214.55037834 200.10732132 204.67915487 205.93402894 195.21289062 212.53637695 C186.00876734 218.93787 176.54620611 224.49957331 166.6015625 229.640625 C164.85673584 230.54735962 164.85673584 230.54735962 163.07666016 231.47241211 C154.05824231 236.05857678 154.05824231 236.05857678 149.1015625 236.828125 C149.1015625 236.498125 149.1015625 236.168125 149.1015625 235.828125 C143.34402917 236.2924422 138.30952946 237.21424758 132.8515625 239.109375 C109.63164471 245.17821715 83.79549124 239.68080444 62.1015625 230.828125 C61.1115625 230.168125 60.1215625 229.508125 59.1015625 228.828125 C57.73691131 228.3787218 56.36025063 227.96496254 54.9765625 227.578125 C44.72861373 224.23353722 29.31630382 213.90794328 23.7109375 204.4921875 C21.8616641 201.43101163 19.69523229 198.9034402 17.3515625 196.203125 C12.69624781 190.7198233 8.76500473 185.02843838 5.1015625 178.828125 C4.44285156 177.73628906 3.78414062 176.64445313 3.10546875 175.51953125 C-18.64791846 138.98063867 -21.29868705 96.52198492 -11.0859375 55.953125 C-9.12834596 48.48846946 -6.8053247 41.70959567 -3.35546875 34.80078125 C1.40226769 25.0939785 5.68545798 14.57981145 2.1015625 3.828125 C0.14131478 2.83751234 0.14131478 2.83751234 -2.2109375 2.203125 C-3.38076172 1.84347656 -3.38076172 1.84347656 -4.57421875 1.4765625 C-12.29818467 -0.67835909 -18.05731372 -0.38810613 -25.6640625 2.26953125 C-27.8984375 2.828125 -27.8984375 2.828125 -30.8984375 1.828125 C-59.86013341 7.99018796 -88.3937817 31.74814289 -105.8984375 54.828125 C-107.04699219 56.27638672 -107.04699219 56.27638672 -108.21875 57.75390625 C-120.24108534 73.34148587 -129.39471548 91.95200283 -134.8984375 110.828125 C-135.27226562 112.08496094 -135.64609375 113.34179688 -136.03125 114.63671875 C-137.0742532 118.34903756 -138.00044952 122.07912048 -138.8984375 125.828125 C-139.17123535 126.94437256 -139.4440332 128.06062012 -139.72509766 129.21069336 C-142.36487091 141.41403079 -142.23972984 153.38932346 -142.0859375 165.828125 C-142.07085126 167.97134468 -142.05716988 170.11457472 -142.04492188 172.2578125 C-142.01225664 177.44817822 -141.96069561 182.63803337 -141.8984375 187.828125 C-149.70025633 176.12539675 -145.87323474 147.3452028 -143.44482422 133.76611328 C-142.97383548 131.44089467 -142.44827627 129.13598281 -141.8984375 126.828125 C-141.67269043 125.87276855 -141.44694336 124.91741211 -141.21435547 123.93310547 C-137.614955 109.15723003 -132.79699908 95.3808689 -125.8984375 81.828125 C-125.36114014 80.76392334 -125.36114014 80.76392334 -124.81298828 79.67822266 C-116.77925435 64.01152231 -106.0815209 50.46665077 -93.8984375 37.828125 C-93.23585938 37.11398437 -92.57328125 36.39984375 -91.890625 35.6640625 C-73.66750572 16.52597489 -27.06819718 -16.70876369 0 0 Z " fill="#838FA9" transform="translate(406.8984375,410.171875)"/>
<path d="M0 0 C0.83354004 0.17370117 1.66708008 0.34740234 2.52587891 0.52636719 C16.87260902 3.60452741 30.40729852 8.52614925 44 14 C44.76328613 14.30695801 45.52657227 14.61391602 46.31298828 14.93017578 C78.43839081 28.02716759 128.5673107 52.66181461 145.5 84.8515625 C148.23760088 91.75259804 149.21516565 97.47601963 146.75 104.625 C143.47217168 110.94652605 139.66543164 115.58592565 134.4375 120.3125 C133.81834717 120.88009033 133.19919434 121.44768066 132.5612793 122.0324707 C128.05525187 126.13028254 123.40324746 130.01367578 118.6484375 133.8203125 C115.82174165 136.1467082 113.12941098 138.5817193 110.4375 141.0625 C106.38623591 144.78328123 102.24253504 148.28328727 97.91796875 151.6796875 C94.87914057 154.09610509 91.88787267 156.563514 88.8996582 159.04199219 C85.27838008 162.04260538 81.64114023 165.02353961 78 168 C77.3915625 168.49918945 76.783125 168.99837891 76.15625 169.51269531 C65.23473484 178.41745341 54.69462687 186.01101822 40 185 C29.35993345 183.07453555 21.20510587 177.95711912 12.71875 171.5234375 C-2.66621737 159.88663707 -19.38465618 150.80039886 -37 143 C-38.45792969 142.33097656 -38.45792969 142.33097656 -39.9453125 141.6484375 C-63.59989294 131.20268261 -88.54602201 127.1987915 -114 124 C-114 123.67 -114 123.34 -114 123 C-89.08800212 121.4695701 -61.87675313 129.52442178 -39 139 C-39 138.34 -39 137.68 -39 137 C-32.26774665 138.95940977 -26.39560238 141.72793263 -20.3125 145.1875 C-19.44181885 145.67653809 -18.5711377 146.16557617 -17.67407227 146.66943359 C-15.92518669 147.65301058 -14.17799294 148.63960267 -12.43261719 149.62939453 C-10.29140505 150.83581414 -8.1392971 152.01637744 -5.9765625 153.18359375 C0.76567988 156.85837457 6.68702088 160.9475357 12.515625 165.95703125 C14.80461231 167.83932742 17.07774966 169.37103836 19.625 170.875 C23 173 23 173 24 176 C31.7243039 181.29397413 40.81357133 182.95825056 50 182 C63.55197341 179.11331948 75.70043818 166.5941585 86 158 C87.32064643 156.91548664 88.64233983 155.83224748 89.96484375 154.75 C98.49564756 147.76442769 106.93642593 140.68797648 115.28076172 133.48095703 C117.66274923 131.42910582 120.05595405 129.39052516 122.44897461 127.3515625 C124.21369107 125.84352772 125.97071997 124.32694428 127.7265625 122.80859375 C129.78030703 121.0342498 131.85211258 119.30864217 133.9609375 117.59765625 C139.7024466 112.80745291 143.66013855 108.5353808 145 101 C145.49368698 89.80531417 142.48452885 83.23257072 135.08203125 75.08203125 C131.02110799 71.02110799 126.52766589 67.51950216 122 64 C121.36739258 63.50306641 120.73478516 63.00613281 120.08300781 62.49414062 C110.35125098 54.85938443 100.45287477 47.61734411 90 41 C89.41605469 40.62955566 88.83210938 40.25911133 88.23046875 39.87744141 C26.59272099 1.1146782 -46.37889892 -13.01289443 -117.67749023 2.95410156 C-127.25061202 5.20621059 -136.6554986 7.94137176 -146 11 C-146.74475586 11.24363281 -147.48951172 11.48726562 -148.25683594 11.73828125 C-181.43136507 22.3507939 -181.43136507 22.3507939 -210 41 C-209.21625 40.484375 -208.4325 39.96875 -207.625 39.4375 C-206.75875 38.963125 -205.8925 38.48875 -205 38 C-204.34 38.33 -203.68 38.66 -203 39 C-203.56283691 39.36649658 -204.12567383 39.73299316 -204.70556641 40.1105957 C-216.21067091 47.62631049 -227.33744516 55.33187988 -238 64 C-239.327274 65.00802852 -240.65783589 66.01188398 -242 67 C-242.66 66.67 -243.32 66.34 -244 66 C-247.77997791 68.91030908 -251.14908976 72.04423275 -254.5 75.4375 C-255.4178125 76.36433594 -256.335625 77.29117188 -257.28125 78.24609375 C-258.1784375 79.15488281 -259.075625 80.06367188 -260 81 C-261.6654026 82.66792977 -263.33199087 84.33467688 -265 86 C-266.10794922 87.10794922 -266.10794922 87.10794922 -267.23828125 88.23828125 C-270.11914062 91.11914062 -270.11914062 91.11914062 -273 94 C-273 89.60104877 -270.20378899 87.63492336 -267.3125 84.625 C-266.78205078 84.06039062 -266.25160156 83.49578125 -265.70507812 82.9140625 C-261.03009761 77.95800954 -256.32491755 73.25993404 -251 69 C-250.28199219 68.26523437 -249.56398438 67.53046875 -248.82421875 66.7734375 C-245.48543594 63.49468813 -241.95163796 60.56156188 -238.3125 57.625 C-237.59626465 57.0470166 -236.8800293 56.4690332 -236.14208984 55.87353516 C-230.90644354 51.67626641 -225.64432661 47.63816257 -220 44 C-219.40622559 43.6169873 -218.81245117 43.23397461 -218.20068359 42.83935547 C-153.06542068 1.15850779 -75.99908633 -15.91618496 0 0 Z " fill="#7A869E" transform="translate(586,218)"/>
<path d="M0 0 C1.54389507 2.83801863 2.43162958 5.40974021 3.078125 8.5703125 C3.26616699 9.45759033 3.45420898 10.34486816 3.64794922 11.2590332 C3.94596436 12.67768677 3.94596436 12.67768677 4.25 14.125 C6.49773787 24.36254655 9.3495393 34.17911221 13 44 C13.25475098 44.69367676 13.50950195 45.38735352 13.77197266 46.10205078 C28.70158297 86.15459156 58.01569556 123.38669799 92 149 C92.61037109 149.46583496 93.22074219 149.93166992 93.84960938 150.41162109 C102.34631584 156.8871142 111.05498659 162.67977395 120.31103516 168.01074219 C121.80301614 168.88462293 123.26905829 169.80246604 124.73046875 170.7265625 C146.28145402 184.16011609 171.55226091 192.48650425 196.125 198.3125 C197.08784912 198.54300049 198.05069824 198.77350098 199.04272461 199.01098633 C217.51028737 203.15155227 235.86616723 204.55459211 254.75 204.4375 C255.79760498 204.43445862 256.84520996 204.43141724 257.92456055 204.42828369 C273.95463857 204.35962521 289.31934914 203.58087856 305 200 C305.98645508 199.78569336 306.97291016 199.57138672 307.98925781 199.35058594 C328.9516377 194.7392651 349.61706851 188.27318381 369 179 C369.96462158 178.54439697 369.96462158 178.54439697 370.94873047 178.07958984 C395.93506836 166.21031101 418.8792365 150.77779346 439.68823242 132.578125 C442.34707818 130.27675334 444.82648817 128.4932177 448 127 C443.81034984 132.1315095 439.4475156 136.45023955 434.3125 140.625 C433.58063477 141.22328613 432.84876953 141.82157227 432.09472656 142.43798828 C419.82078351 152.31682574 406.57549544 161.02025756 393 169 C392.42314453 169.34450195 391.84628906 169.68900391 391.25195312 170.04394531 C358.63101543 189.45288103 321.65465214 201.5275195 284 206 C283.19651123 206.09643799 282.39302246 206.19287598 281.56518555 206.29223633 C273.07819055 207.18976862 264.58625568 207.2007661 256.0625 207.1875 C255.28488312 207.18656342 254.50726624 207.18562683 253.70608521 207.18466187 C209.6396239 207.06975362 166.58062993 196.38954195 127.93261719 175.046875 C125.43339074 173.69307472 122.88036263 172.46758836 120.3125 171.25 C116.5872343 169.40980851 113.43027096 167.21605351 110.171875 164.6484375 C107.65091249 162.73504509 105.03073411 161.03380914 102.375 159.3125 C90.71298266 151.58678071 80.06878683 142.69540784 70 133 C69.42185547 132.44376953 68.84371094 131.88753906 68.24804688 131.31445312 C60.94820373 124.24882955 54.16286868 117.09552267 48 109 C46.70921345 107.43677285 45.4175196 105.87429452 44.125 104.3125 C22.96930622 77.74392363 -2.09861782 34.97696363 0 0 Z " fill="#7F899F" transform="translate(265,599)"/>
<path d="M0 0 C0 4.36500049 -2.68392938 6.55874699 -5.375 9.75 C-17.9799086 25.1661288 -38.51915874 50.49351776 -37.93359375 71.3671875 C-37.55835196 75.000481 -36.93077546 78.46782647 -36 82 C-34.3382833 82.28102562 -32.6699686 82.52310209 -31 82.75 C-30.071875 82.88921875 -29.14375 83.0284375 -28.1875 83.171875 C-19.92219008 82.72619652 -12.30346589 76.06565533 -5.625 71.625 C4.69204959 64.79233655 14.8716372 58.31071891 26.125 53.125 C26.98609375 52.7228125 27.8471875 52.320625 28.734375 51.90625 C30.82071097 50.93262655 32.90918288 49.96395233 35 49 C28.375 52.125 28.375 52.125 25 51 C48.30777224 39.23919749 78.4932354 26.99974473 105 28 C105 28.33 105 28.66 105 29 C107.10169878 29.02772839 107.10169878 29.02772839 109.59423828 28.78344727 C119.70430915 27.94008204 129.73709469 27.88369377 139.875 27.9375 C141.54557156 27.94253086 143.2161446 27.94709093 144.88671875 27.95117188 C148.92451682 27.96203841 152.96224132 27.97921319 157 28 C157 28.33 157 28.66 157 29 C156.2064209 29.01981934 155.4128418 29.03963867 154.59521484 29.06005859 C98.61459344 30.52196777 45.34004448 40.03857092 -2 72 C-4.01432952 73.35342395 -6.02875554 74.70669049 -8.04443359 76.05810547 C-9.29397378 76.89955613 -10.53953061 77.74697268 -11.77978516 78.60205078 C-17.59580826 82.56249342 -23.47354052 86.07892342 -30.5 87.25 C-31.3559375 87.39953125 -32.211875 87.5490625 -33.09375 87.703125 C-33.7228125 87.80109375 -34.351875 87.8990625 -35 88 C-38.58753129 83.87488757 -41.94609506 80.00509796 -42.22265625 74.296875 C-40.07772042 52.17016854 -23.67381109 28.74609143 -10 12 C-9.13509834 10.92994471 -8.27051517 9.85963193 -7.40625 8.7890625 C-1.42037671 1.42037671 -1.42037671 1.42037671 0 0 Z " fill="#8490A8" transform="translate(311,312)"/>
<path d="M0 0 C6 2 6 2 8.26171875 2.8359375 C9.04160156 3.11695313 9.82148438 3.39796875 10.625 3.6875 C11.72714844 4.09548828 11.72714844 4.09548828 12.8515625 4.51171875 C14.97210715 5.17646645 14.97210715 5.17646645 16.91796875 4.44140625 C20.01388005 3.78504982 21.84386179 4.9564234 24.6875 6.25 C32.70283505 9.75852634 40.57398948 12.19003558 49.07421875 14.2421875 C52.44449642 15.11512991 55.68678718 16.22936904 58.96875 17.3828125 C61.2623575 18.14030246 61.2623575 18.14030246 64.8125 18.5 C68.12468126 19.01955785 69.60730817 19.70301584 72 22 C72 22.33 72 22.66 72 23 C81.36286993 24.57690441 89.75006282 25.41566934 99.1796875 24.12109375 C102.28089449 23.98793943 105.20907728 24.37342777 108.28320312 24.7487793 C113.94503778 25.27232601 119.63102805 25.18457893 125.3125 25.1875 C127.17551758 25.20586914 127.17551758 25.20586914 129.07617188 25.22460938 C136.0591526 25.23559466 142.62729193 24.78209199 149.48242188 23.42480469 C151.8042815 23.03302465 153.84394992 22.94384306 156.1875 23.0625 C175.04562826 23.50501926 194.99185002 15.87230994 212.54638672 9.83935547 C216.35640093 8.53598941 220.17780843 7.26713018 224 6 C224 6.66 224 7.32 224 8 C202.6885946 17.42413907 179.91748468 23.12020908 157 27 C156.0006543 27.18546387 155.00130859 27.37092773 153.97167969 27.56201172 C142.65304682 29.4642887 131.32418007 29.39792716 119.875 29.375 C118.80997253 29.37412384 117.74494507 29.37324768 116.64764404 29.37234497 C90.32643689 29.30095286 66.22723083 25.66060366 41 18 C40.05511719 17.71753418 39.11023438 17.43506836 38.13671875 17.14404297 C25.51686149 13.32640227 12.28224819 8.97280522 1 2 C0.67 1.34 0.34 0.68 0 0 Z " fill="#D4E0F5" transform="translate(401,775)"/>
<path d="M0 0 C-3.87806379 1.29268793 -6.62122405 0.32614273 -10.4375 -0.6875 C-11.15615234 -0.87248047 -11.87480469 -1.05746094 -12.61523438 -1.24804688 C-16.8017724 -2.34780531 -20.90674695 -3.58678609 -25 -5 C-49.07491154 -13.28384053 -74.67301663 -16.80887949 -100 -18 C-100 -18.33 -100 -18.66 -100 -19 C-96.7 -19.33 -93.4 -19.66 -90 -20 C-112.43600473 -20.58153337 -133.45020481 -19.44208792 -155.27832031 -13.6159668 C-159.3770166 -12.6883555 -162.81070072 -12.60101912 -167 -13 C-168.74609375 -14.5234375 -168.74609375 -14.5234375 -170 -16 C-114.30704039 -32.35098814 -52.21098786 -22.77978108 0 0 Z " fill="#D2DFF6" transform="translate(637,237)"/>
<path d="M0 0 C0.99 0.495 0.99 0.495 2 1 C1.44650879 1.29656494 0.89301758 1.59312988 0.32275391 1.89868164 C-16.03257908 10.1937005 -16.03257908 10.1937005 -30.3828125 21.38671875 C-32.61537237 23.61594644 -34.91160578 25.64278091 -37.35131836 27.63916016 C-47.39904849 35.86354507 -58.0053533 44.77343799 -64.7734375 55.984375 C-66.09369534 58.15397068 -67.56998864 60.11803952 -69.125 62.125 C-71.77611726 65.59983255 -73.87260135 69.18535415 -76 73 C-76.49371094 73.63292969 -76.98742187 74.26585937 -77.49609375 74.91796875 C-79.06703646 77.09280632 -79.94103275 79.05401275 -80.875 81.5625 C-82.22564781 85.09771832 -83.70668564 88.4795525 -85.375 91.875 C-90.31714955 102.61614236 -93.86798904 114.75563407 -95.59326172 126.45214844 C-95.97363024 128.83481702 -96.47295666 131.15499673 -97.00390625 133.5078125 C-98.22776627 139.56878012 -98.48533911 145.58225514 -98.6875 151.75 C-98.73455078 152.84699219 -98.78160156 153.94398438 -98.83007812 155.07421875 C-99.0214802 160.25148807 -98.90838885 164.88706849 -98 170 C-98.14118143 172.72343527 -98.5806584 175.29757633 -99 178 C-99.33 178 -99.66 178 -100 178 C-106.54031812 149.62056477 -98.38768074 116.06314332 -87 90 C-86.53980469 88.8346875 -86.07960938 87.669375 -85.60546875 86.46875 C-82.02864753 77.56118421 -77.44461143 69.8481099 -72 62 C-71.33871094 61.04222656 -70.67742187 60.08445312 -69.99609375 59.09765625 C-64.2913185 51.0648717 -58.12897624 42.82905168 -51 36 C-55.46804583 38.23402292 -57.32733462 40.85276061 -60 45 C-60.66 45 -61.32 45 -62 45 C-62 45.66 -62 46.32 -62 47 C-62.5671875 47.54398437 -63.134375 48.08796875 -63.71875 48.6484375 C-67.14959649 52.18502925 -69.26533501 56.40007469 -71.64453125 60.6875 C-75.15672196 66.79460825 -75.15672196 66.79460825 -79 68 C-70.61063849 44.43194835 -45.46485133 24.42187621 -25.375 11.25 C-24.65795898 10.77747803 -23.94091797 10.30495605 -23.20214844 9.81811523 C-17.37287959 6.05814268 -11.88286078 3.26789541 -5 2 C-3.6696875 1.443125 -3.6696875 1.443125 -2.3125 0.875 C-1.1678125 0.441875 -1.1678125 0.441875 0 0 Z " fill="#A5B4D3" transform="translate(368,415)"/>
<path d="M0 0 C-2.84491761 1.61299035 -4.83239023 2.24258285 -8.09643555 2.17944336 C-9.29766556 2.16491119 -9.29766556 2.16491119 -10.52316284 2.15008545 C-11.38563629 2.13020569 -12.24810974 2.11032593 -13.13671875 2.08984375 C-15.00039854 2.06662071 -16.86408726 2.04410581 -18.7277832 2.0222168 C-19.70139801 2.00766449 -20.67501282 1.99311218 -21.6781311 1.9781189 C-39.00254654 1.74428295 -55.90552931 1.85709767 -73 5 C-73.96550781 5.17692383 -74.93101562 5.35384766 -75.92578125 5.53613281 C-89.54431127 8.11972681 -102.83162447 11.689747 -116 16 C-116.74475586 16.24363281 -117.48951172 16.48726562 -118.25683594 16.73828125 C-151.43136507 27.3507939 -151.43136507 27.3507939 -180 46 C-179.21625 45.484375 -178.4325 44.96875 -177.625 44.4375 C-176.75875 43.963125 -175.8925 43.48875 -175 43 C-174.34 43.33 -173.68 43.66 -173 44 C-173.56283691 44.36649658 -174.12567383 44.73299316 -174.70556641 45.1105957 C-186.21067091 52.62631049 -197.33744516 60.33187988 -208 69 C-209.327274 70.00802852 -210.65783589 71.01188398 -212 72 C-212.66 71.67 -213.32 71.34 -214 71 C-217.77997791 73.91030908 -221.14908976 77.04423275 -224.5 80.4375 C-225.4178125 81.36433594 -226.335625 82.29117188 -227.28125 83.24609375 C-228.1784375 84.15488281 -229.075625 85.06367188 -230 86 C-231.6654026 87.66792977 -233.33199087 89.33467688 -235 91 C-236.10794922 92.10794922 -236.10794922 92.10794922 -237.23828125 93.23828125 C-240.11914062 96.11914062 -240.11914062 96.11914062 -243 99 C-243 94.60104877 -240.20378899 92.63492336 -237.3125 89.625 C-236.78205078 89.06039062 -236.25160156 88.49578125 -235.70507812 87.9140625 C-231.03009761 82.95800954 -226.32491755 78.25993404 -221 74 C-220.28199219 73.26523437 -219.56398438 72.53046875 -218.82421875 71.7734375 C-215.48543594 68.49468813 -211.95163796 65.56156188 -208.3125 62.625 C-207.59626465 62.0470166 -206.8800293 61.4690332 -206.14208984 60.87353516 C-200.90644354 56.67626641 -195.64432661 52.63816257 -190 49 C-189.40622559 48.6169873 -188.81245117 48.23397461 -188.20068359 47.83935547 C-131.99440105 11.87227103 -66.66771975 -5.96825473 0 0 Z " fill="#8A95AD" transform="translate(556,213)"/>
<path d="M0 0 C-1.02731458 3.08194373 -2.15472996 4.24324056 -4.42578125 6.44921875 C-11.40488698 13.3244172 -16.77864279 20.90309967 -21.88867188 29.20800781 C-22.96350896 30.941159 -24.06304107 32.65563894 -25.171875 34.3671875 C-29.62776017 41.35254132 -33.0706945 48.26096386 -36 56 C-36.48210937 57.18980469 -36.96421875 58.37960937 -37.4609375 59.60546875 C-40.38632053 66.92358754 -42.78256119 74.30478558 -44.75 81.9375 C-44.94851563 82.68644531 -45.14703125 83.43539062 -45.3515625 84.20703125 C-49.02920831 99.16950802 -49.27639633 114.25004689 -49.125 129.5625 C-49.11493344 131.36392722 -49.10581419 133.16536 -49.09765625 134.96679688 C-49.07597219 139.31133918 -49.04165287 143.65560517 -49 148 C-49.66 148 -50.32 148 -51 148 C-51.99 149.98 -51.99 149.98 -53 152 C-53.07695355 145.0298583 -53.12897298 138.0598287 -53.16479492 131.08935547 C-53.1797507 128.72505602 -53.20012268 126.36078366 -53.22631836 123.99658203 C-53.37074437 110.61310508 -53.22969156 98.03570504 -50 85 C-49.80639893 84.1116748 -49.61279785 83.22334961 -49.41333008 82.30810547 C-46.01087224 66.83773011 -39.98009103 52.5150404 -32.8125 38.4375 C-32.50401123 37.81198242 -32.19552246 37.18646484 -31.87768555 36.54199219 C-29.75847873 32.55197139 -28.10285859 31.56459256 -24 30 C-22.88396678 27.76013043 -22.88396678 27.76013043 -22 25 C-20.60435345 22.49566892 -19.05308932 20.09652514 -17.5 17.6875 C-17.09652344 17.04232422 -16.69304687 16.39714844 -16.27734375 15.73242188 C-15.24154258 14.11718738 -14.12659452 12.55327117 -13 11 C-12.34 11 -11.68 11 -11 11 C-11 10.34 -11 9.68 -11 9 C-10.34 9 -9.68 9 -9 9 C-8.773125 8.443125 -8.54625 7.88625 -8.3125 7.3125 C-6.49644015 4.11277551 -3.9498923 0 0 0 Z " fill="#A5B3D1" transform="translate(317,451)"/>
<path d="M0 0 C-2.50198713 1.66799142 -4.41062145 2.63142012 -7.17578125 3.6640625 C-35.26805483 14.38123456 -60.69663372 31.86691385 -79 56 C-80.14855469 57.44826172 -80.14855469 57.44826172 -81.3203125 58.92578125 C-93.34264784 74.51336087 -102.49627798 93.12387783 -108 112 C-108.37382812 113.25683594 -108.74765625 114.51367188 -109.1328125 115.80859375 C-110.1758157 119.52091256 -111.10201202 123.25099548 -112 127 C-112.27279785 128.11624756 -112.5455957 129.23249512 -112.82666016 130.38256836 C-115.46643341 142.58590579 -115.34129234 154.56119846 -115.1875 167 C-115.17241376 169.14321968 -115.15873238 171.28644972 -115.14648438 173.4296875 C-115.11381914 178.62005322 -115.06225811 183.80990837 -115 189 C-122.80181883 177.29727175 -118.97479724 148.5170778 -116.54638672 134.93798828 C-116.07539798 132.61276967 -115.54983877 130.30785781 -115 128 C-114.77425293 127.04464355 -114.54850586 126.08928711 -114.31591797 125.10498047 C-110.7165175 110.32910503 -105.89856158 96.5527439 -99 83 C-98.46270264 81.93579834 -98.46270264 81.93579834 -97.91455078 80.85009766 C-89.88081685 65.18339731 -79.1830834 51.63852577 -67 39 C-66.33742188 38.28585937 -65.67484375 37.57171875 -64.9921875 36.8359375 C-51.24811023 22.40178104 -21.04507887 -1.23794582 0 0 Z " fill="#798398" transform="translate(380,409)"/>
<path d="M0 0 C2.40355793 2.05330066 4.79313786 4.12228615 7.1796875 6.1953125 C10.90419149 9.42764619 14.7126379 12.5494252 18.5390625 15.66015625 C29.64922098 24.69699043 40.71055042 33.79655287 51.57421875 43.12890625 C52.50234375 43.92039062 53.43046875 44.711875 54.38671875 45.52734375 C61.11229336 51.39220494 67.30036072 57.65539134 70.57421875 66.12890625 C70.140625 68.30078125 70.140625 68.30078125 69.57421875 70.12890625 C69.34089844 69.54625 69.10757813 68.96359375 68.8671875 68.36328125 C62.01066265 52.95427135 46.87761455 40.96888629 33.63891602 31.03637695 C29.30870915 27.76422388 25.21149288 24.27494023 21.13671875 20.69140625 C15.25775088 15.5303421 9.24944088 10.60613644 3.046875 5.83984375 C0.6442208 3.98851833 -1.68627081 2.07585348 -3.9921875 0.10546875 C-12.00457737 -6.65830817 -19.46786232 -11.59097643 -30.48828125 -10.80859375 C-36.93442784 -9.58396047 -43.16621105 -7.02069964 -48.98828125 -4.05859375 C-49.79265625 -3.66671875 -50.59703125 -3.27484375 -51.42578125 -2.87109375 C-52.08578125 -3.20109375 -52.74578125 -3.53109375 -53.42578125 -3.87109375 C-51.11578125 -5.52109375 -48.80578125 -7.17109375 -46.42578125 -8.87109375 C-50.6976465 -7.3425544 -54.41904988 -5.15599894 -58.23828125 -2.74609375 C-59.13450195 -2.18728516 -59.13450195 -2.18728516 -60.04882812 -1.6171875 C-61.51004376 -0.70538895 -62.9682271 0.21126601 -64.42578125 1.12890625 C-64.42578125 0.13890625 -64.42578125 -0.85109375 -64.42578125 -1.87109375 C-61.97673319 -3.69811365 -59.59360459 -5.29722456 -56.98828125 -6.87109375 C-56.25561035 -7.32025146 -55.52293945 -7.76940918 -54.76806641 -8.23217773 C-49.76220814 -11.23380871 -45.1306095 -13.49089337 -39.42578125 -14.87109375 C-38.45640625 -15.11859375 -37.48703125 -15.36609375 -36.48828125 -15.62109375 C-21.40524105 -16.85236234 -11.09906814 -9.38102295 0 0 Z " fill="#79849D" transform="translate(663.42578125,618.87109375)"/>
<path d="M0 0 C24.91199788 -1.5304299 52.12324687 6.52442178 75 16 C75 15.34 75 14.68 75 14 C81.73225335 15.95940977 87.60439762 18.72793263 93.6875 22.1875 C94.55818115 22.67653809 95.4288623 23.16557617 96.32592773 23.66943359 C98.07481331 24.65301058 99.82200706 25.63960267 101.56738281 26.62939453 C103.70859495 27.83581414 105.8607029 29.01637744 108.0234375 30.18359375 C114.76397088 33.8574431 120.68402 37.94562089 126.51171875 42.953125 C128.82052608 44.85236368 131.12293669 46.41043954 133.6875 47.9375 C134.780625 48.618125 135.87375 49.29875 137 50 C137 50.66 137 51.32 137 52 C132.50985376 50.50328459 128.52151236 48.16631659 125 45 C125 44.34 125 43.68 125 43 C124.26136719 43.22300781 123.52273438 43.44601562 122.76171875 43.67578125 C120 44 120 44 117.95703125 42.91796875 C117.24933594 42.34691406 116.54164063 41.77585937 115.8125 41.1875 C97.29974158 27.41247413 74.91248253 17.8418907 53 11 C52.24315918 10.76297363 51.48631836 10.52594727 50.70654297 10.28173828 C36.41634902 5.9209102 21.77365608 3.98697953 7 2 C4.6658363 1.67209172 2.33285383 1.33711761 0 1 C0 0.67 0 0.34 0 0 Z " fill="#7B86A0" transform="translate(472,341)"/>
<path d="M0 0 C-2.29935054 2.29935054 -3.25868839 2.44009519 -6.3828125 3.04296875 C-7.29047363 3.22569336 -8.19813477 3.40841797 -9.13330078 3.59667969 C-10.61419189 3.88913574 -10.61419189 3.88913574 -12.125 4.1875 C-32.32252988 8.41186149 -51.25989721 14.33684326 -70 23 C-69.236875 22.649375 -68.47375 22.29875 -67.6875 21.9375 C-65 21 -65 21 -62 22 C-63.69228517 22.84614258 -65.38461529 23.69219535 -67.07714844 24.5378418 C-68.54472525 25.27212489 -70.01150376 26.00800534 -71.47753906 26.74536133 C-74.64710963 28.33739726 -77.81501204 29.91394246 -81.03125 31.41015625 C-92.48928766 36.79345843 -103.04015408 44.14373131 -113.4140625 51.36328125 C-118.68696981 54.95034355 -123.4147389 57.7432869 -130 57 C-132.25390625 55.99609375 -132.25390625 55.99609375 -134 55 C-133.38253906 54.98582031 -132.76507813 54.97164063 -132.12890625 54.95703125 C-125.47391086 54.5822446 -120.38633395 53.01653351 -115 49 C-114.34 48.01 -113.68 47.02 -113 46 C-113 46.66 -113 47.32 -113 48 C-112.34 48 -111.68 48 -111 48 C-111 47.34 -111 46.68 -111 46 C-110.18208984 45.56300781 -110.18208984 45.56300781 -109.34765625 45.1171875 C-104.33358655 42.39159064 -99.5574783 39.45732201 -94.84765625 36.234375 C-93 35 -93 35 -91 34 C-90.67 33.01 -90.34 32.02 -90 31 C-92.31 31.66 -94.62 32.32 -97 33 C-97 32.34 -97 31.68 -97 31 C-96.22914063 30.73445313 -95.45828125 30.46890625 -94.6640625 30.1953125 C-93.66117187 29.84210938 -92.65828125 29.48890625 -91.625 29.125 C-90.62726563 28.77695312 -89.62953125 28.42890625 -88.6015625 28.0703125 C-85.89557882 27.15217498 -85.89557882 27.15217498 -84 25 C-82.01273042 24.29629264 -80.01040197 23.63460882 -78 23 C-72.50206579 20.84480979 -67.05215539 18.60508096 -61.8125 15.875 C-57.66578254 13.75949983 -53.44939414 12.34830125 -49 11 C-48.01241699 10.69545898 -48.01241699 10.69545898 -47.00488281 10.38476562 C-44.73466631 9.6863914 -42.46162674 8.99802759 -40.1875 8.3125 C-39.4457251 8.08570557 -38.7039502 7.85891113 -37.93969727 7.62524414 C-34.44968897 6.58971228 -31.67170525 6 -28 6 C-27.67 5.34 -27.34 4.68 -27 4 C-25.05395508 3.40576172 -25.05395508 3.40576172 -22.51953125 2.9296875 C-21.60236328 2.75566406 -20.68519531 2.58164062 -19.74023438 2.40234375 C-18.77408203 2.22832031 -17.80792969 2.05429687 -16.8125 1.875 C-15.86568359 1.69324219 -14.91886719 1.51148438 -13.94335938 1.32421875 C-9.2402591 0.45120781 -4.80634463 -0.2423367 0 0 Z " fill="#C0CDEA" transform="translate(410,339)"/>
<path d="M0 0 C0.66 0 1.32 0 2 0 C1.27949712 6.33330929 -0.32266456 12.3427763 -1.9375 18.5 C-10.37364014 51.76006939 -9.36316088 89.81151422 5.85253906 121.2043457 C6.61542019 122.78098066 7.3144198 124.38824779 8 126 C7.67 126.66 7.34 127.32 7 128 C3 121.375 3 121.375 3 118 C2.34 118 1.68 118 1 118 C-2.21384749 108.84322782 -5.00133993 99.58766114 -7.43164062 90.19482422 C-7.93465174 88.25235431 -8.4580098 86.31517824 -8.984375 84.37890625 C-15.40723621 56.71818794 -11.1879363 25.79761257 0 0 Z " fill="#CFDDF6" transform="translate(398,451)"/>
<path d="M0 0 C1.54389507 2.83801863 2.43162958 5.40974021 3.078125 8.5703125 C3.26616699 9.45759033 3.45420898 10.34486816 3.64794922 11.2590332 C3.94596436 12.67768677 3.94596436 12.67768677 4.25 14.125 C6.49773787 24.36254655 9.3495393 34.17911221 13 44 C13.25475098 44.69367676 13.50950195 45.38735352 13.77197266 46.10205078 C30.43490757 90.80468308 63.63621964 128.85132557 102.02612305 156.29663086 C105.29274237 158.6511393 108.25135509 161.05306976 111 164 C106.61650598 162.49779137 103.0869505 160.14554128 99.375 157.4375 C98.76108398 156.99349854 98.14716797 156.54949707 97.51464844 156.09204102 C79.22843151 142.74746782 61.70364811 127.08758923 48 109 C46.70948808 107.43654613 45.41778154 105.8740777 44.125 104.3125 C22.96930622 77.74392363 -2.09861782 34.97696363 0 0 Z " fill="#6A7289" transform="translate(265,599)"/>
<path d="M0 0 C3.63257939 2.87062371 5.71308632 5.56733283 6.49682617 10.12841797 C6.75743949 17.97967423 4.4622892 23.98604694 1.25778198 31.07937622 C-0.17802231 34.26803857 -1.53882072 37.48859674 -2.90625 40.70703125 C-3.17375565 41.33316818 -3.44126129 41.95930511 -3.71687317 42.60441589 C-6.79920533 49.86375995 -9.22684603 57.12394566 -10.8984375 64.828125 C-11.13530273 65.9119043 -11.13530273 65.9119043 -11.37695312 67.01757812 C-14.97210407 84.40153846 -15.49859308 103.25766322 -12.91308594 120.81787109 C-12.8984375 122.828125 -12.8984375 122.828125 -14.8984375 125.828125 C-19.40921106 95.46095297 -17.27283741 62.67223986 -3.35546875 34.80078125 C1.40226769 25.0939785 5.68545798 14.57981145 2.1015625 3.828125 C0.14131478 2.83751234 0.14131478 2.83751234 -2.2109375 2.203125 C-2.99082031 1.96335937 -3.77070313 1.72359375 -4.57421875 1.4765625 C-12.29818467 -0.67835909 -18.05731372 -0.38810613 -25.6640625 2.26953125 C-27.8984375 2.828125 -27.8984375 2.828125 -30.8984375 1.828125 C-29.5784375 1.498125 -28.2584375 1.168125 -26.8984375 0.828125 C-26.8984375 0.168125 -26.8984375 -0.491875 -26.8984375 -1.171875 C-27.5584375 -1.501875 -28.2184375 -1.831875 -28.8984375 -2.171875 C-18.93610444 -4.75470209 -9.15866815 -5.65349886 0 0 Z " fill="#909CB5" transform="translate(406.8984375,410.171875)"/>
<path d="M0 0 C0 0.33 0 0.66 0 1 C2.10169878 1.02772839 2.10169878 1.02772839 4.59423828 0.78344727 C14.70430915 -0.05991796 24.73709469 -0.11630623 34.875 -0.0625 C36.54557156 -0.05746914 38.2161446 -0.05290907 39.88671875 -0.04882812 C43.92451682 -0.03796159 47.96224132 -0.02078681 52 0 C52 0.33 52 0.66 52 1 C51.2064209 1.01981934 50.4128418 1.03963867 49.59521484 1.06005859 C27.95856695 1.62509009 6.59678448 2.38617608 -14.68359375 6.67895508 C-18.33457485 7.40578349 -21.55746827 8.01574846 -25.29296875 7.8828125 C-31.25091025 8.07115628 -36.70190999 10.01484666 -42.375 11.75 C-44.14617187 12.27207031 -44.14617187 12.27207031 -45.953125 12.8046875 C-51.85800357 14.58009642 -57.53189973 16.48091983 -63.08911133 19.16455078 C-65.14309006 20.06255962 -67.13226666 20.61156536 -69.3125 21.125 C-72.85966387 21.81149057 -72.85966387 21.81149057 -75.3125 23.1875 C-77 24 -77 24 -80 23 C-56.69222776 11.23919749 -26.5067646 -1.00025527 0 0 Z " fill="#8E99B2" transform="translate(416,340)"/>
<path d="M0 0 C0.99 0.495 0.99 0.495 2 1 C1.07960938 1.77601563 0.15921875 2.55203125 -0.7890625 3.3515625 C-18.01815654 17.58587685 -18.01815654 17.58587685 -31.7734375 34.984375 C-33.09369534 37.15397068 -34.56998864 39.11803952 -36.125 41.125 C-38.77611726 44.59983255 -40.87260135 48.18535415 -43 52 C-43.49371094 52.63292969 -43.98742187 53.26585937 -44.49609375 53.91796875 C-46.06703646 56.09280632 -46.94103275 58.05401275 -47.875 60.5625 C-49.22564781 64.09771832 -50.70668564 67.4795525 -52.375 70.875 C-57.31714955 81.61614236 -60.86798904 93.75563407 -62.59326172 105.45214844 C-62.97363024 107.83481702 -63.47295666 110.15499673 -64.00390625 112.5078125 C-65.22776627 118.56878012 -65.48533911 124.58225514 -65.6875 130.75 C-65.73455078 131.84699219 -65.78160156 132.94398438 -65.83007812 134.07421875 C-66.0214802 139.25148807 -65.90838885 143.88706849 -65 149 C-65.14118143 151.72343527 -65.5806584 154.29757633 -66 157 C-66.33 157 -66.66 157 -67 157 C-73.54031812 128.62056477 -65.38768074 95.06314332 -54 69 C-53.53980469 67.8346875 -53.07960938 66.669375 -52.60546875 65.46875 C-49.02864753 56.56118421 -44.44461143 48.8481099 -39 41 C-38.33871094 40.04222656 -37.67742187 39.08445312 -36.99609375 38.09765625 C-29.93223373 28.15117052 -22.48645767 18.72491783 -13 11 C-11.26607128 9.53780246 -9.53800483 8.06882703 -7.80981445 6.59985352 C-5.21213882 4.39324843 -2.6059695 2.19680051 0 0 Z " fill="#D4E2FA" transform="translate(335,436)"/>
<path d="M0 0 C-0.59167969 0.30292969 -1.18335938 0.60585938 -1.79296875 0.91796875 C-2.58316406 1.33691406 -3.37335937 1.75585938 -4.1875 2.1875 C-4.96480469 2.59355469 -5.74210938 2.99960937 -6.54296875 3.41796875 C-9.11823683 4.95206033 -9.11823683 4.95206033 -11.32421875 7.3359375 C-21.06904133 17.03808202 -34.21441296 23.40471433 -46.3125 29.6875 C-46.90548889 29.99726776 -47.49847778 30.30703552 -48.10943604 30.62619019 C-59.43225411 36.51545961 -59.43225411 36.51545961 -64 37 C-65.8125 35.5625 -65.8125 35.5625 -67 34 C-66.04480469 33.63648438 -65.08960938 33.27296875 -64.10546875 32.8984375 C-53.43443671 28.77714445 -43.47723337 24.60062631 -34.97265625 16.7421875 C-30.03419483 12.38069484 -25.46031588 9.27763823 -19 8 C-17.13628357 6.95558368 -17.13628357 6.95558368 -15.5 5.625 C-5.54344563 -1.84781521 -5.54344563 -1.84781521 0 0 Z " fill="#8794B1" transform="translate(620,610)"/>
<path d="M0 0 C0 0.66 0 1.32 0 2 C-21.30523762 11.42141161 -44.08223964 17.15594069 -67 21 C-67.78568359 21.13664063 -68.57136719 21.27328125 -69.38085938 21.4140625 C-84.08729283 23.87167094 -102.63668256 25.18697363 -117 21 C-117 20.34 -117 19.68 -117 19 C-115.59476074 19.01571045 -115.59476074 19.01571045 -114.16113281 19.03173828 C-110.6274155 19.06617742 -107.093881 19.09107035 -103.56005859 19.10986328 C-102.04147496 19.11981384 -100.52290993 19.13337916 -99.00439453 19.15087891 C-90.63078277 19.24484023 -82.67659219 19.10692802 -74.42749023 17.42700195 C-72.13650331 17.02401129 -70.12818373 16.94557325 -67.8125 17.0625 C-47.4700026 17.53985102 -23.37791677 9.37389571 -5.00390625 1.28515625 C-2 0 -2 0 0 0 Z " fill="#CEDBF3" transform="translate(625,781)"/>
<path d="M0 0 C0.99 0.495 0.99 0.495 2 1 C1.15574463 1.54974487 1.15574463 1.54974487 0.29443359 2.1105957 C-11.21067091 9.62631049 -22.33744516 17.33187988 -33 26 C-34.327274 27.00802852 -35.65783589 28.01188398 -37 29 C-37.66 28.67 -38.32 28.34 -39 28 C-42.77997791 30.91030908 -46.14908976 34.04423275 -49.5 37.4375 C-50.4178125 38.36433594 -51.335625 39.29117188 -52.28125 40.24609375 C-53.62703125 41.60927734 -53.62703125 41.60927734 -55 43 C-56.6654026 44.66792977 -58.33199087 46.33467688 -60 48 C-61.10794922 49.10794922 -61.10794922 49.10794922 -62.23828125 50.23828125 C-65.11914062 53.11914062 -65.11914062 53.11914062 -68 56 C-68 51.60104877 -65.20378899 49.63492336 -62.3125 46.625 C-61.78205078 46.06039062 -61.25160156 45.49578125 -60.70507812 44.9140625 C-56.03009761 39.95800954 -51.32491755 35.25993404 -46 31 C-45.28199219 30.26523437 -44.56398438 29.53046875 -43.82421875 28.7734375 C-40.48536582 25.49461927 -36.95120515 22.56220065 -33.3125 19.625 C-32.60641602 19.05354248 -31.90033203 18.48208496 -31.17285156 17.89331055 C-14.71784371 4.67254989 -14.71784371 4.67254989 -4.90234375 2.5625 C-2.69883715 2.0130055 -2.69883715 2.0130055 0 0 Z " fill="#929EBA" transform="translate(381,256)"/>
<path d="M0 0 C0.66 0.33 1.32 0.66 2 1 C-0.12722097 5.03052394 -2.39730976 7.25509315 -6 10 C-7.6792977 11.65393918 -9.34426194 13.32247592 -11 15 C-11.87398438 15.86238281 -12.74796875 16.72476562 -13.6484375 17.61328125 C-25.89980559 29.74178462 -36.30059016 42.88683401 -46.015625 57.09765625 C-48.29671416 60.43397366 -50.63659808 63.72173283 -53 67 C-53.62011719 65.21240234 -53.62011719 65.21240234 -54 63 C-52.5149727 60.3740371 -51.01351618 58.05265996 -49.25 55.625 C-48.50097412 54.56804932 -48.50097412 54.56804932 -47.73681641 53.48974609 C-40.65058675 43.58146825 -33.1768809 34.06602299 -24.91796875 25.10546875 C-23.34902735 23.38314815 -21.88041241 21.63891072 -20.4375 19.8125 C-17.90662184 16.89225597 -15.20534846 14.50968941 -12.26953125 12.01171875 C-7.9834619 8.21253508 -4.011255 4.08523307 0 0 Z " fill="#A3B1D0" transform="translate(342,282)"/>
<path d="M0 0 C6.73225335 1.95940977 12.60439762 4.72793263 18.6875 8.1875 C19.55818115 8.67653809 20.4288623 9.16557617 21.32592773 9.66943359 C23.07481331 10.65301058 24.82200706 11.63960267 26.56738281 12.62939453 C28.70859495 13.83581414 30.8607029 15.01637744 33.0234375 16.18359375 C39.76397088 19.8574431 45.68402 23.94562089 51.51171875 28.953125 C53.82052608 30.85236368 56.12293669 32.41043954 58.6875 33.9375 C59.780625 34.618125 60.87375 35.29875 62 36 C62 36.66 62 37.32 62 38 C57.50985376 36.50328459 53.52151236 34.16631659 50 31 C50 30.34 50 29.68 50 29 C48.90945313 29.33257812 48.90945313 29.33257812 47.796875 29.671875 C44.25612388 30.08727038 43.12491806 29.27594897 40.25 27.25 C39.08210937 26.45335937 39.08210937 26.45335937 37.890625 25.640625 C36 24 36 24 35 21 C33.04305244 19.56500315 33.04305244 19.56500315 30.58203125 18.29296875 C29.66309082 17.79120117 28.74415039 17.28943359 27.79736328 16.77246094 C26.8123584 16.24942383 25.82735352 15.72638672 24.8125 15.1875 C23.81976074 14.65286133 22.82702148 14.11822266 21.80419922 13.56738281 C14.36252744 9.60701849 6.85646522 6.05678169 -1 3 C-0.67 2.01 -0.34 1.02 0 0 Z " fill="#96A3C2" transform="translate(547,355)"/>
<path d="M0 0 C5.09498155 1.5639036 8.61270242 4.70152778 12.625 8.0625 C13.33503174 8.6488623 14.04506348 9.23522461 14.77661133 9.83935547 C16.20185021 11.01664956 17.62514854 12.19629729 19.04638672 13.37841797 C21.57796782 15.47973785 24.13279583 17.55188955 26.6875 19.625 C30.77189709 22.97408203 34.83220954 26.35088609 38.875 29.75 C39.41084717 30.19811035 39.94669434 30.6462207 40.4987793 31.10791016 C43.83990486 33.92949148 46.95115962 36.87240728 50 40 C40.92236016 38.48354973 32.52274754 29.0688455 25.64257812 23.36132812 C22.29152506 20.58405823 18.92928349 17.82066824 15.5625 15.0625 C14.87583252 14.49442627 14.18916504 13.92635254 13.48168945 13.34106445 C12.829021 12.80698975 12.17635254 12.27291504 11.50390625 11.72265625 C10.92455322 11.24578369 10.3452002 10.76891113 9.74829102 10.27758789 C8.01694551 8.93487947 8.01694551 8.93487947 5.95288086 7.99389648 C3.09336629 6.53857909 1.18874922 4.3103464 -1 2 C-0.67 1.34 -0.34 0.68 0 0 Z " fill="#DAE7F9" transform="translate(648,611)"/>
<path d="M0 0 C0.99 0.495 0.99 0.495 2 1 C-2.7239625 4.18430065 -7.47493813 7.30308651 -12.3125 10.3125 C-21.30569828 16.02745142 -29.6341161 22.42732022 -37.453125 29.6640625 C-39.464237 31.50861001 -41.50261218 33.2880512 -43.57421875 35.0625 C-48.60366726 39.45224311 -53.32800802 44.14194179 -58.0456543 48.86035156 C-59.55825498 50.37076113 -61.07869944 51.87296356 -62.59960938 53.375 C-68.18370264 58.92800409 -73.37224857 64.60619857 -78 71 C-78 63.54444246 -67.784093 55.48698586 -62.875 50.1875 C-62.28960449 49.55360352 -61.70420898 48.91970703 -61.10107422 48.26660156 C-58.46028649 45.45105036 -55.82930812 42.78577772 -52.8203125 40.36328125 C-50.10833271 38.09077741 -48.17814765 35.76815505 -46 33 C-43.03594509 30.3044474 -39.89038401 27.84595355 -36.74121094 25.37011719 C-35.52993065 24.41698973 -34.32252112 23.45893099 -33.11816406 22.49707031 C-25.05236939 16.06585872 -16.84583542 10.04685564 -8.0625 4.625 C-7.28704834 4.14240723 -6.51159668 3.65981445 -5.71264648 3.16259766 C-3.84798748 2.03991363 -1.92809888 1.00985511 0 0 Z " fill="#C8D5F2" transform="translate(384,256)"/>
<path d="M0 0 C0.33 0 0.66 0 1 0 C1.08975098 0.83845459 1.17950195 1.67690918 1.27197266 2.54077148 C5.0775909 37.3640501 5.0775909 37.3640501 16.77734375 70.18359375 C17.38255859 71.57771484 17.38255859 71.57771484 18 73 C17.67 73.66 17.34 74.32 17 75 C13 68.375 13 68.375 13 65 C12.34 65 11.68 65 11 65 C8.55784763 58.04191223 6.37445958 51.03389973 4.375 43.9375 C4.16915283 43.21900879 3.96330566 42.50051758 3.7512207 41.76025391 C0.91290096 31.54046349 -0.29396307 21.9246803 -0.125 11.3125 C-0.11146484 9.66991211 -0.11146484 9.66991211 -0.09765625 7.99414062 C-0.07438154 5.32918646 -0.04169135 2.66471866 0 0 Z " fill="#DDE9FC" transform="translate(388,504)"/>
<path d="M0 0 C0 4.36500049 -2.68392938 6.55874699 -5.375 9.75 C-19.97589385 27.60727032 -39.06474221 52.88051654 -37.875 76.8984375 C-38 79 -38 79 -40 81 C-41.77168257 79.22831743 -41.79347783 76.92912539 -42.046875 74.54296875 C-41.6514999 53.09386951 -23.02619765 27.95296991 -10 12 C-9.13509834 10.92994471 -8.27051517 9.85963193 -7.40625 8.7890625 C-1.42037671 1.42037671 -1.42037671 1.42037671 0 0 Z " fill="#7C879F" transform="translate(311,312)"/>
<path d="M0 0 C5.60142017 0.52843586 10.70631812 1.65852955 16.09375 3.28125 C23.16352076 5.02968793 30.19320694 5.19260431 37.4375 5.1875 C38.39092285 5.18814453 39.3443457 5.18878906 40.32666016 5.18945312 C48.98705137 5.12589062 57.44172677 4.27125544 66 3 C66 3.66 66 4.32 66 5 C46.03820178 13.05476068 21.80525277 9.18340299 2 2 C1.34 1.34 0.68 0.68 0 0 Z " fill="#DBE8F8" transform="translate(479,645)"/>
<path d="M0 0 C0.33 0 0.66 0 1 0 C1.12004395 0.58265625 1.24008789 1.1653125 1.36376953 1.765625 C8.19256277 34.45132583 21.51106501 61.77410463 46 85 C45.01 85.495 45.01 85.495 44 86 C33.58398164 77.73701336 25.7265814 67.3846241 19 56 C18.34128906 54.90816406 17.68257813 53.81632813 17.00390625 52.69140625 C10.23051785 41.31051057 5.24947964 29.95055932 2.125 17.0625 C1.90948486 16.17425537 1.69396973 15.28601074 1.47192383 14.37084961 C0.35338156 9.46140861 -0.23282894 5.03321379 0 0 Z " fill="#737E97" transform="translate(393,533)"/>
<path d="M0 0 C3.43782031 0.13883419 6.87516029 0.28727054 10.3125 0.4375 C11.28896484 0.47681641 12.26542969 0.51613281 13.27148438 0.55664062 C14.20927734 0.59853516 15.14707031 0.64042969 16.11328125 0.68359375 C17.40939331 0.73858032 17.40939331 0.73858032 18.73168945 0.79467773 C21 1 21 1 24 2 C24 1.34 24 0.68 24 0 C28.68787843 0.48832067 32.53007287 1.49862202 36.89453125 3.24609375 C39.10497174 4.03758728 41.2623924 4.53529235 43.5625 5 C47.64747429 5.84782485 51.203365 7.24229861 55 9 C56.3107622 9.56653769 57.6232355 10.12913512 58.9375 10.6875 C59.948125 11.120625 60.95875 11.55375 62 12 C57.83626908 13.7690463 54.18067672 12.06859218 50.125 10.75 C35.19845967 6.13451462 19.98141738 3.17120092 4.36328125 2.34375 C2 2 2 2 0 0 Z " fill="#C6D3ED" transform="translate(472,339)"/>
<path d="M0 0 C-2.50198713 1.66799142 -4.41062145 2.63142012 -7.17578125 3.6640625 C-33.76793131 13.80893905 -55.04731184 29.82964615 -75 50 C-74.41561581 46.69957789 -73.42912249 45.04540501 -71.078125 42.6796875 C-70.47186279 42.06706055 -69.86560059 41.45443359 -69.2409668 40.82324219 C-68.58394775 40.18032227 -67.92692871 39.53740234 -67.25 38.875 C-66.23063354 37.87194824 -66.23063354 37.87194824 -65.19067383 36.84863281 C-50.60694045 22.71569721 -21.6690561 -1.27465036 0 0 Z " fill="#818CA2" transform="translate(380,409)"/>
<path d="M0 0 C5.33807322 0.47851254 9.23686711 3.35719678 13.625 6.1875 C14.45604248 6.71923828 15.28708496 7.25097656 16.14331055 7.79882812 C32.91660616 18.66856753 48.96320506 30.73240574 63 45 C62.67 45.99 62.34 46.98 62 48 C61.236875 47.030625 60.47375 46.06125 59.6875 45.0625 C55.3512892 40.03369997 50.21847216 36.06736035 45 32 C44.04891357 31.25242432 44.04891357 31.25242432 43.07861328 30.48974609 C30.02680071 20.25101236 16.5491049 11.00830943 2.31640625 2.49609375 C1.55199219 2.00238281 0.78757812 1.50867188 0 1 C0 0.67 0 0.34 0 0 Z " fill="#727E96" transform="translate(663,250)"/>
<path d="M0 0 C-1.42164489 2.84328979 -3.16271348 3.09998592 -6.07421875 4.3203125 C-7.12834961 4.76971191 -8.18248047 5.21911133 -9.26855469 5.68212891 C-10.96093262 6.3963501 -10.96093262 6.3963501 -12.6875 7.125 C-21.24952938 10.79704065 -29.41698036 14.61969591 -37.328125 19.5390625 C-39.97814065 20.98804766 -42.0396964 21.5457207 -45 22 C-46.6792238 22.63437344 -48.35008418 23.29289322 -50 24 C-46.3563214 19.75234206 -41.85037024 17.43634143 -37 14.8125 C-36.12585449 14.33707764 -35.25170898 13.86165527 -34.35107422 13.37182617 C-28.03435393 9.98557221 -21.63609777 6.8074835 -15.125 3.8125 C-14.3 3.42618408 -13.475 3.03986816 -12.625 2.6418457 C-8.24277666 0.67987875 -4.90703555 -0.48123661 0 0 Z " fill="#A4B1CF" transform="translate(424,236)"/>
<path d="M0 0 C3.76858764 1.30653125 6.22821896 2.8364418 9.125 5.5625 C12.40202213 8.5695862 15.72872062 11.45343169 19.1875 14.25 C46.52423434 36.51868808 46.52423434 36.51868808 51 48 C50.58984375 50.23046875 50.58984375 50.23046875 50 52 C49.65001953 51.12601563 49.65001953 51.12601563 49.29296875 50.234375 C42.35582479 34.64418575 27.05178799 22.65587544 13.67358398 12.57788086 C8.90195391 8.97463531 4.25400076 5.21003176 0 1 C0 0.67 0 0.34 0 0 Z " fill="#737F97" transform="translate(683,637)"/>
<path d="M0 0 C1.20527344 -0.00128906 2.41054688 -0.00257813 3.65234375 -0.00390625 C5.53759766 0.00189453 5.53759766 0.00189453 7.4609375 0.0078125 C8.69457031 0.00394531 9.92820312 0.00007813 11.19921875 -0.00390625 C18.14116041 0.00347095 24.94714269 0.25496608 31.8359375 1.1328125 C31.8359375 1.7928125 31.8359375 2.4528125 31.8359375 3.1328125 C27.48035061 3.42223561 23.12448168 3.70684606 18.76831055 3.98730469 C17.29133958 4.08303875 15.81444819 4.18000982 14.33764648 4.27832031 C5.83142872 4.84367083 -2.63352549 5.29763168 -11.1640625 5.1328125 C-11.1640625 4.8028125 -11.1640625 4.4728125 -11.1640625 4.1328125 C-7.6990625 3.6378125 -7.6990625 3.6378125 -4.1640625 3.1328125 C-6.1440625 3.1328125 -8.1240625 3.1328125 -10.1640625 3.1328125 C-10.1640625 2.4728125 -10.1640625 1.8128125 -10.1640625 1.1328125 C-6.73209119 0.08775804 -3.5776514 0.00370741 0 0 Z " fill="#C9D6F1" transform="translate(432.1640625,335.8671875)"/>
<path d="M0 0 C0.99 0.33 1.98 0.66 3 1 C-2.06405372 4.82154717 -7.12921611 7.763954 -12.875 10.4375 C-13.70217529 10.82365479 -14.52935059 11.20980957 -15.3815918 11.60766602 C-32.83143482 19.6077991 -48.60360638 23.53060043 -68 23 C-68 22.67 -68 22.34 -68 22 C-66.98164062 21.90203125 -65.96328125 21.8040625 -64.9140625 21.703125 C-42.24761663 19.3806544 -21.47229538 13.69932307 -2.1796875 1.1171875 C-1.10074219 0.56417969 -1.10074219 0.56417969 0 0 Z " fill="#7D89A2" transform="translate(582,628)"/>
<path d="M0 0 C-0.79096069 0.42128174 -0.79096069 0.42128174 -1.59790039 0.85107422 C-10.61855929 5.67710226 -19.58759668 10.50417002 -28.0625 16.25 C-28.66666748 16.65903564 -29.27083496 17.06807129 -29.89331055 17.48950195 C-32.62779014 19.35349238 -35.34333919 21.24134855 -38.05078125 23.14453125 C-43.43686446 26.80230007 -48.27332368 29.75924861 -55 29 C-57.25390625 27.99609375 -57.25390625 27.99609375 -59 27 C-58.38253906 26.98582031 -57.76507813 26.97164063 -57.12890625 26.95703125 C-50.47391086 26.5822446 -45.38633395 25.01653351 -40 21 C-39.34 20.01 -38.68 19.02 -38 18 C-38 18.66 -38 19.32 -38 20 C-37.34 20 -36.68 20 -36 20 C-36 19.34 -36 18.68 -36 18 C-35.18208984 17.56300781 -35.18208984 17.56300781 -34.34765625 17.1171875 C-30.39254528 14.96722974 -26.57243273 12.75809609 -22.875 10.1875 C-18.75446241 7.39663944 -14.48894052 4.94676523 -10.125 2.5625 C-9.46999512 2.19600342 -8.81499023 1.82950684 -8.14013672 1.4519043 C-3.35338258 -1.11779419 -3.35338258 -1.11779419 0 0 Z " fill="#D5E0F5" transform="translate(335,367)"/>
<path d="M0 0 C0.33 0 0.66 0 1 0 C0.85530469 1.79175893 0.70916739 3.58340142 0.5625 5.375 C0.48128906 6.37273438 0.40007812 7.37046875 0.31640625 8.3984375 C0.14622632 10.33554733 -0.03041708 12.27239646 -0.24621582 14.20495605 C-0.88476664 19.9967956 -1.13516096 25.68393472 -1.09765625 31.5078125 C-1.0962413 32.35930878 -1.09482635 33.21080505 -1.09336853 34.08810425 C-1.08783919 36.76710759 -1.07530074 39.44602257 -1.0625 42.125 C-1.05747584 43.95833211 -1.05291455 45.79166556 -1.04882812 47.625 C-1.03789306 52.08336659 -1.02067872 56.54166839 -1 61 C-1.66 61 -2.32 61 -3 61 C-3.66 62.32 -4.32 63.64 -5 65 C-4.835 63.7728125 -4.67 62.545625 -4.5 61.28125 C-3.84185099 55.34863917 -3.9348207 49.46106244 -4 43.5 C-4.06371721 28.63926717 -3.99391864 14.44341647 0 0 Z " fill="#9FACCC" transform="translate(269,538)"/>
<path d="M0 0 C0 0.66 0 1.32 0 2 C-3.59733189 5.59733189 -9.11420118 4.81929609 -14 5 C-18.84012104 4.99599769 -23.6646351 4.82988834 -28.5 4.625 C-29.7478125 4.58117187 -30.995625 4.53734375 -32.28125 4.4921875 C-42.25648621 4.10521713 -42.25648621 4.10521713 -46 3 C-46 2.34 -46 1.68 -46 1 C-45.05793701 1.01047363 -44.11587402 1.02094727 -43.14526367 1.03173828 C-39.59852577 1.0661367 -36.05196909 1.09105113 -32.50512695 1.10986328 C-30.97970759 1.11982599 -29.45430684 1.13340109 -27.92895508 1.15087891 C-19.78976512 1.24170019 -11.98061387 1.19330855 -3.99731445 -0.66455078 C-2 -1 -2 -1 0 0 Z " fill="#C6D3ED" transform="translate(554,799)"/>
<path d="M0 0 C1.06863281 0.20367188 2.13726563 0.40734375 3.23828125 0.6171875 C4.04652344 0.78476562 4.85476563 0.95234375 5.6875 1.125 C2.85978003 3.01014664 0.56127091 3.96515359 -2.625 5.0625 C-5.87097564 6.20460254 -8.79821149 7.37211637 -11.875 8.9375 C-12.679375 9.329375 -13.48375 9.72125 -14.3125 10.125 C-14.9725 9.795 -15.6325 9.465 -16.3125 9.125 C-14.0025 7.475 -11.6925 5.825 -9.3125 4.125 C-13.58436525 5.65353935 -17.30576863 7.84009481 -21.125 10.25 C-22.0212207 10.80880859 -22.0212207 10.80880859 -22.93554688 11.37890625 C-24.39676251 12.2907048 -25.85494585 13.20735976 -27.3125 14.125 C-27.3125 13.135 -27.3125 12.145 -27.3125 11.125 C-25.9230957 9.89819336 -25.9230957 9.89819336 -23.98828125 8.71484375 C-23.28896484 8.28236328 -22.58964844 7.84988281 -21.86914062 7.40429688 C-21.12857422 6.96150391 -20.38800781 6.51871094 -19.625 6.0625 C-18.90376953 5.61583984 -18.18253906 5.16917969 -17.43945312 4.70898438 C-7.35174427 -1.45419117 -7.35174427 -1.45419117 0 0 Z " fill="#838DA6" transform="translate(626.3125,605.875)"/>
<path d="M0 0 C-2.67688507 1.78459004 -4.33748444 2.51826769 -7.3515625 3.3671875 C-8.20363281 3.61339844 -9.05570312 3.85960937 -9.93359375 4.11328125 C-11.70411842 4.61437314 -13.47494406 5.11440302 -15.24609375 5.61328125 C-20.3672875 7.09512592 -25.1602897 8.82791748 -29.97485352 11.125 C-32.07224841 12.03121619 -34.09038595 12.60316884 -36.3125 13.125 C-39.85966387 13.81149057 -39.85966387 13.81149057 -42.3125 15.1875 C-44 16 -44 16 -47 15 C-11.55015198 -2.88753799 -11.55015198 -2.88753799 0 0 Z " fill="#A5B2D0" transform="translate(383,348)"/>
<path d="M0 0 C3.88360826 0.55480118 5.2860995 2.2860995 8 5 C18.66351467 13.22246914 29.33753675 18.31660388 43 17 C44.67147286 16.69167005 46.34003607 16.36525146 48 16 C48.495 16.99 48.495 16.99 49 18 C37.36370248 20.95525016 27.8299366 20.16222946 17.03125 14.421875 C14.27631834 12.703912 11.62963522 10.90380831 9 9 C8.11441406 8.360625 7.22882812 7.72125 6.31640625 7.0625 C1.77879514 3.66460089 1.77879514 3.66460089 0 2 C0 1.34 0 0.68 0 0 Z " fill="#808CA3" transform="translate(593,383)"/>
<path d="M0 0 C1.54456343 4.00556784 0.46211503 7.6410626 -0.375 11.6875 C-3.64598009 28.98698129 -3.13150808 46.4568224 -3 64 C-3.33 64 -3.66 64 -4 64 C-4.79973543 59.05374056 -5.17175376 54.23673915 -5.203125 49.22265625 C-5.20882507 48.49364609 -5.21452515 47.76463593 -5.22039795 47.01353455 C-5.22979419 45.47477644 -5.23636038 43.93599871 -5.24023438 42.3972168 C-5.24984434 40.0997155 -5.28087801 37.80314783 -5.3125 35.50585938 C-5.40018229 23.24797402 -4.112051 11.6452302 0 0 Z " fill="#C4D2EE" transform="translate(269,530)"/>
<path d="M0 0 C-2.29935054 2.29935054 -3.25868839 2.44009519 -6.3828125 3.04296875 C-7.74647949 3.31826416 -7.74647949 3.31826416 -9.13769531 3.59912109 C-10.61641113 3.89036865 -10.61641113 3.89036865 -12.125 4.1875 C-22.05133835 6.21925291 -31.70060176 8.82196624 -41.36767578 11.85229492 C-42.80216064 12.29279175 -42.80216064 12.29279175 -44.265625 12.7421875 C-45.10899414 13.0088623 -45.95236328 13.27553711 -46.82128906 13.55029297 C-49 14 -49 14 -52 13 C-44.56570565 9.54218868 -36.25279086 6 -28 6 C-27.67 5.34 -27.34 4.68 -27 4 C-25.05395508 3.40576172 -25.05395508 3.40576172 -22.51953125 2.9296875 C-21.60236328 2.75566406 -20.68519531 2.58164062 -19.74023438 2.40234375 C-18.77408203 2.22832031 -17.80792969 2.05429687 -16.8125 1.875 C-15.39227539 1.60236328 -15.39227539 1.60236328 -13.94335938 1.32421875 C-9.2402591 0.45120781 -4.80634463 -0.2423367 0 0 Z " fill="#CCDAF6" transform="translate(410,339)"/>
<path d="M0 0 C0.66 0 1.32 0 2 0 C0.60797994 12.62418192 -5.40237674 22.75098825 -15.22265625 30.828125 C-17.12239338 32.26214174 -19.03717532 33.65406308 -21 35 C-21.73046875 33.26171875 -21.73046875 33.26171875 -22 31 C-20.48828125 28.89453125 -20.48828125 28.89453125 -18.3125 26.8125 C-17.25482422 25.77029297 -17.25482422 25.77029297 -16.17578125 24.70703125 C-14 23 -14 23 -11.921875 22.484375 C-7.99141095 21.49377024 -6.0225991 17.27820135 -4 14 C-1.81066754 9.47818641 -0.62413651 4.99309211 0 0 Z " fill="#8A96AD" transform="translate(734,691)"/>
<path d="M0 0 C0 0.99 0 1.98 0 3 C-0.56847656 2.855625 -1.13695312 2.71125 -1.72265625 2.5625 C-9.83712053 0.61177737 -15.8540103 0.67725515 -23.765625 3.44140625 C-26 4 -26 4 -29 3 C-27.68 2.67 -26.36 2.34 -25 2 C-25 1.34 -25 0.68 -25 0 C-25.66 -0.33 -26.32 -0.66 -27 -1 C-16.98645496 -3.59610427 -9.75640772 -3.35876331 0 0 Z " fill="#919DB6" transform="translate(405,409)"/>
<path d="M0 0 C0 2 0 2 -2.1875 4.3125 C-3.115625 5.199375 -4.04375 6.08625 -5 7 C-7.67179526 9.60966048 -9.92570221 11.88855331 -12 15 C-12.66 15 -13.32 15 -14 15 C-14 15.66 -14 16.32 -14 17 C-14.5671875 17.54398437 -15.134375 18.08796875 -15.71875 18.6484375 C-19.14959649 22.18502925 -21.26533501 26.40007469 -23.64453125 30.6875 C-27.15672196 36.79460825 -27.15672196 36.79460825 -31 38 C-28.05296895 29.72096947 -9.94107646 0 0 0 Z " fill="#C8D7F0" transform="translate(320,445)"/>
<path d="M0 0 C4.70815194 1.47568941 7.89746769 4.26488763 11.5 7.5 C18.11758002 13.30991571 24.96075559 18.71353682 32 24 C32.85464844 24.64453125 33.70929687 25.2890625 34.58984375 25.953125 C36.38961227 27.30690519 38.19409159 28.65442118 40 30 C39.01 30.495 39.01 30.495 38 31 C30.34491108 25.71644439 23.06386697 20.38324006 16.2421875 14.03125 C13.56524619 11.60614638 10.74322775 9.47473325 7.828125 7.34765625 C5.11016392 5.3440311 2.54129117 3.22362978 0 1 C0 0.67 0 0.34 0 0 Z " fill="#A3B2D1" transform="translate(656,621)"/>
<path d="M0 0 C1 3 1 3 -0.58203125 6.58203125 C-1.31565199 7.99734677 -2.05960171 9.40734464 -2.8125 10.8125 C-5.27400243 15.47346011 -7.49259367 19.91948238 -9 25 C-9.66 25 -10.32 25 -11 25 C-11.103125 25.969375 -11.20625 26.93875 -11.3125 27.9375 C-12.20397647 34.2160414 -14.55751795 40.17561972 -17 46 C-19.69021242 38.97073529 -14.46419436 29.31673404 -11.59716797 22.82226562 C-1.97095059 1.97095059 -1.97095059 1.97095059 0 0 Z " fill="#BECCE9" transform="translate(288,483)"/>
<path d="M0 0 C0.66 0.33 1.32 0.66 2 1 C1.38125 1.57331055 1.38125 1.57331055 0.75 2.15820312 C-6.61758376 8.99130815 -13.97284909 15.81394367 -21 23 C-25.33333333 27.33333333 -29.66666667 31.66666667 -34 36 C-34 31.60104877 -31.20378899 29.63492336 -28.3125 26.625 C-27.51682617 25.77808594 -27.51682617 25.77808594 -26.70507812 24.9140625 C-22.03009761 19.95800954 -17.32491755 15.25993404 -12 11 C-11.21625 10.21625 -10.4325 9.4325 -9.625 8.625 C-6.56254955 5.56254955 -3.31637585 2.78116822 0 0 Z " fill="#838DA5" transform="translate(347,276)"/>
<path d="M0 0 C5.31139343 4.45008638 7.36069897 9.26216632 8.28515625 16.11328125 C8.6126285 23.44581215 5.34633432 29.32561908 1 35 C-1.24582786 37.11514391 -3.58227145 39.08483301 -6 41 C-6 40.01 -6 39.02 -6 38 C-4.609375 36.74609375 -4.609375 36.74609375 -2.75 35.4375 C1.76193217 31.69589771 3.8085824 27.7219398 5 22 C5.36780825 14.25763628 4.39507514 8.37994778 0 2 C0 1.34 0 0.68 0 0 Z " fill="#7B889D" transform="translate(726,297)"/>
<path d="M0 0 C0.125 2.875 0.125 2.875 0 6 C-0.66 6.66 -1.32 7.32 -2 8 C-2.31879416 15.30614985 0.07275434 22.51702775 2.125 29.4375 C2.69791356 31.37140154 3.26339075 33.30752643 3.8203125 35.24609375 C4.07055176 36.08841553 4.32079102 36.9307373 4.57861328 37.79858398 C5 40 5 40 4 43 C-0.67598756 31.00923657 -6.32286157 16.06325797 -5 3 C-2.76271186 0 -2.76271186 0 0 0 Z " fill="#CAD7F1" transform="translate(271,593)"/>
<path d="M0 0 C-2 3 -2 3 -3.88671875 3.6015625 C-4.58410156 3.73304688 -5.28148437 3.86453125 -6 4 C-7.27816382 4.43747463 -8.54915203 4.89642012 -9.8125 5.375 C-10.50730469 5.63667969 -11.20210938 5.89835938 -11.91796875 6.16796875 C-13.84896994 6.93964465 -15.73977808 7.80989669 -17.625 8.6875 C-21.04264823 10.01658542 -23.37502206 10.26524229 -27 10 C-25 8 -25 8 -22 6 C-21.34 5.34 -20.68 4.68 -20 4 C-17.77445826 3.21820713 -15.5186446 2.52113296 -13.25 1.875 C-11.43242187 1.34519531 -11.43242187 1.34519531 -9.578125 0.8046875 C-6.23836286 0.05360562 -3.40548132 -0.15669393 0 0 Z " fill="#BAC8E5" transform="translate(466,222)"/>
<path d="M0 0 C0.11480713 0.55236328 0.22961426 1.10472656 0.34790039 1.67382812 C2.60461058 12.31906192 5.08193093 22.37573067 9.85180664 32.19921875 C10.61419737 33.77793408 11.3137702 35.38672062 12 37 C11.67 37.66 11.34 38.32 11 39 C7 32.375 7 32.375 7 29 C6.34 29 5.68 29 5 29 C1.72212799 19.7940616 -0.73529777 10.49247529 -3 1 C-1 0 -1 0 0 0 Z " fill="#CEDBF3" transform="translate(394,540)"/>
<path d="M0 0 C-1 3 -1 3 -4.38671875 4.8671875 C-5.81564746 5.54636144 -7.24950869 6.21523074 -8.6875 6.875 C-14.16175771 9.39544986 -18.44996992 12.0405343 -23 16 C-25.6875 17 -25.6875 17 -28 17 C-29.64453125 15.5 -29.64453125 15.5 -31 14 C-29.56720703 13.45472656 -29.56720703 13.45472656 -28.10546875 12.8984375 C-20.23976138 9.85746605 -7.57888404 0 0 0 Z " fill="#97A5C2" transform="translate(584,630)"/>
<path d="M0 0 C0.721875 -0.144375 1.44375 -0.28875 2.1875 -0.4375 C5.85592161 -1.17118432 9.26061046 -1.06337948 13 -1 C9.88784553 1.07476964 7.67060134 1.71064913 4.0625 2.5625 C2.50208984 2.93568359 2.50208984 2.93568359 0.91015625 3.31640625 C-0.53037109 3.65478516 -0.53037109 3.65478516 -2 4 C-2.70253906 4.19464844 -3.40507812 4.38929688 -4.12890625 4.58984375 C-6 5 -6 5 -10 5 C-12.33735323 5.71700437 -14.59353029 6.57427372 -16.87890625 7.44140625 C-19 8 -19 8 -22 7 C-19.96023786 6.03761964 -17.91809954 5.08027473 -15.875 4.125 C-14.16957031 3.32449219 -14.16957031 3.32449219 -12.4296875 2.5078125 C-3.82514735 -1.27504912 -3.82514735 -1.27504912 0 0 Z " fill="#C1D1EB" transform="translate(380,411)"/>
<path d="M0 0 C0.33 0.66 0.66 1.32 1 2 C3.32156597 2.40729228 5.6568787 2.74438677 8 3 C8 3.33 8 3.66 8 4 C-2.49411854 5.08101063 -12.51052868 4.82544266 -23 4 C-23 3.67 -23 3.34 -23 3 C-22.3709375 2.95101562 -21.741875 2.90203125 -21.09375 2.8515625 C-16.86049831 2.48179051 -12.79717377 2.04546176 -8.6875 0.9375 C-5.56768648 0.14432707 -3.18092352 -0.19880772 0 0 Z " fill="#C3D1ED" transform="translate(560,215)"/>
<path d="M0 0 C-0.49886719 0.25652344 -0.99773438 0.51304687 -1.51171875 0.77734375 C-7.19991873 3.81036959 -12.43645989 7.28775448 -17.65698242 11.05249023 C-21.79371795 14 -21.79371795 14 -24 14 C-24.33 12.68 -24.66 11.36 -25 10 C-23.1746875 9.38125 -23.1746875 9.38125 -21.3125 8.75 C-17.60411241 7.3658835 -15.00882992 5.60223128 -12 3 C-4.94262295 -1.64754098 -4.94262295 -1.64754098 0 0 Z " fill="#8F9CB9" transform="translate(620,610)"/>
<path d="M0 0 C7.95800678 2.292985 14.81917721 5.94899487 22 10 C21.67 10.66 21.34 11.32 21 12 C16.04242102 10.45173401 11.36189599 8.48219062 6.625 6.375 C5.88894531 6.05015625 5.15289063 5.7253125 4.39453125 5.390625 C2.59529031 4.59615497 0.79749504 3.79841229 -1 3 C-0.67 2.01 -0.34 1.02 0 0 Z " fill="#99A6C6" transform="translate(547,355)"/>
<path d="M0 0 C0.72703125 0.57814453 0.72703125 0.57814453 1.46875 1.16796875 C-0.84125 1.82796875 -3.15125 2.48796875 -5.53125 3.16796875 C-5.53125 3.82796875 -5.53125 4.48796875 -5.53125 5.16796875 C-7.40381417 5.67701532 -9.27944341 6.1747933 -11.15625 6.66796875 C-12.20039063 6.94640625 -13.24453125 7.22484375 -14.3203125 7.51171875 C-17.48812418 8.15915471 -20.30866467 8.28409795 -23.53125 8.16796875 C-19.82170622 4.90238632 -15.61424361 3.48558278 -11.03125 1.85546875 C-10.27199219 1.56607422 -9.51273437 1.27667969 -8.73046875 0.97851562 C-3.1276907 -1.02808352 -3.1276907 -1.02808352 0 0 Z " fill="#B2BFDC" transform="translate(444.53125,227.83203125)"/>
<path d="M0 0 C0 0.66 0 1.32 0 2 C-8.21896724 5.31642538 -15.62196367 6.15484647 -24.4375 6.0625 C-25.26443359 6.05798828 -26.09136719 6.05347656 -26.94335938 6.04882812 C-28.96227146 6.03715811 -30.98114574 6.01922718 -33 6 C-33 5.67 -33 5.34 -33 5 C-24.585 4.505 -24.585 4.505 -16 4 C-16.33 3.34 -16.66 2.68 -17 2 C-14.72954771 1.66408104 -12.45862367 1.33134935 -10.1875 1 C-8.92292969 0.814375 -7.65835938 0.62875 -6.35546875 0.4375 C-3 0 -3 0 0 0 Z " fill="#CFDDF3" transform="translate(545,648)"/>
<path d="M0 0 C-9.70807699 5.08276282 -19.40838747 9.17556999 -30 12 C-27.84701128 9.62645095 -25.90840397 8.3098946 -22.98046875 7.02734375 C-22.20509766 6.68509766 -21.42972656 6.34285156 -20.63085938 5.99023438 C-19.82455078 5.64283203 -19.01824219 5.29542969 -18.1875 4.9375 C-17.39279297 4.58623047 -16.59808594 4.23496094 -15.77929688 3.87304688 C-3.93211843 -1.31070614 -3.93211843 -1.31070614 0 0 Z " fill="#CBD9F4" transform="translate(436,234)"/>
<path d="M0 0 C0.66 0.33 1.32 0.66 2 1 C-3.83405626 5.34653016 -9.5733894 9.57247434 -16 13 C-15.67 11.68 -15.34 10.36 -15 9 C-16.65 9.33 -18.3 9.66 -20 10 C-18.35 8.35 -16.7 6.7 -15 5 C-14.01 5.33 -13.02 5.66 -12 6 C-12 6.66 -12 7.32 -12 8 C-8.04 5.36 -4.08 2.72 0 0 Z M-12 5 C-10 6 -10 6 -10 6 Z " fill="#8692AE" transform="translate(608,616)"/>
<path d="M0 0 C5.94 0.99 5.94 0.99 12 2 C9.17228003 3.88514664 6.87377091 4.84015359 3.6875 5.9375 C0.44152436 7.07960254 -2.48571149 8.24711637 -5.5625 9.8125 C-6.366875 10.204375 -7.17125 10.59625 -8 11 C-8.66 10.67 -9.32 10.34 -10 10 C-8.56542672 9.0165504 -7.12722594 8.03839079 -5.6875 7.0625 C-4.88699219 6.51722656 -4.08648438 5.97195313 -3.26171875 5.41015625 C-1 4 -1 4 2 3 C2 2.34 2 1.68 2 1 C1.34 0.67 0.68 0.34 0 0 Z " fill="#8794B2" transform="translate(620,605)"/>
<path d="M0 0 C4.10110762 1.40398279 6.98089159 3.37087038 10.3125 6.125 C11.19550781 6.84945312 12.07851563 7.57390625 12.98828125 8.3203125 C13.65214844 8.87460937 14.31601562 9.42890625 15 10 C13.02 10.99 13.02 10.99 11 12 C10.236875 11.175 9.47375 10.35 8.6875 9.5 C6.24565858 6.65944803 6.24565858 6.65944803 3 7 C2.67 6.01 2.34 5.02 2 4 C0.50014391 2.33289654 0.50014391 2.33289654 -1 1 C-0.67 0.67 -0.34 0.34 0 0 Z " fill="#D4E2F6" transform="translate(648,611)"/>
<path d="M0 0 C0.66 0 1.32 0 2 0 C1.31195504 6.19240462 -0.28048715 12.01955594 -2 18 C-2.99 17.67 -3.98 17.34 -5 17 C-5.33 17.99 -5.66 18.98 -6 20 C-5.50104522 12.84831485 -2.68436185 6.58708719 0 0 Z " fill="#C5D4F0" transform="translate(398,451)"/>
<path d="M0 0 C3.31309646 0.11147883 6.62521506 0.24170886 9.9375 0.375 C11.32678711 0.42140625 11.32678711 0.42140625 12.74414062 0.46875 C18.72821322 0.72071095 24.19061735 1.53424807 30 3 C30 3.66 30 4.32 30 5 C26.04781186 4.620669 22.09695571 4.22978546 18.14697266 3.828125 C16.80288818 3.69309985 15.45848134 3.56124463 14.11376953 3.43261719 C12.18179988 3.24726217 10.25102496 3.04958429 8.3203125 2.8515625 C7.15773926 2.73635254 5.99516602 2.62114258 4.79736328 2.50244141 C2 2 2 2 0 0 Z " fill="#DBE6F9" transform="translate(472,339)"/>
<path d="M0 0 C6.5814017 2.44235925 12.4474457 4.68120292 17.5 9.66796875 C19.2038832 11.18105253 20.93344366 12.06025132 23 13 C23 13.66 23 14.32 23 15 C18.50985376 13.50328459 14.52151236 11.16631659 11 8 C11 7.34 11 6.68 11 6 C10.29875 6.268125 9.5975 6.53625 8.875 6.8125 C5.58968673 7.02675956 5.13850133 6.67857471 2.6875 4.6875 C1.800625 3.800625 0.91375 2.91375 0 2 C0 1.34 0 0.68 0 0 Z " fill="#8D9AB7" transform="translate(586,378)"/>
<path d="M0 0 C5.13782773 1.29014877 8.13305616 3.5968499 11.6875 7.375 C12.15994141 7.85710938 12.63238281 8.33921875 13.11914062 8.8359375 C15.6232648 11.42083987 17.91933198 14.063405 20 17 C19.67 17.66 19.34 18.32 19 19 C16.55420395 16.62214273 14.23112034 14.3021213 12.15625 11.58984375 C9.89669082 8.87591669 7.54877388 6.89408993 4.75 4.75 C3.1507068 3.52048558 1.56235575 2.27612263 0 1 C0 0.67 0 0.34 0 0 Z " fill="#ADBDDB" transform="translate(709,662)"/>
<path d="M0 0 C6.74742227 0 10.46690141 4.57771049 15 9 C13 10 13 10 10.875 9.5 C6.70839439 7.32611881 3.33228902 4.2992142 0 1 C0 0.67 0 0.34 0 0 Z " fill="#DEEBFA" transform="translate(660,622)"/>
<path d="M0 0 C1.59387042 3.18774083 1.52663137 6.53927959 1 10 C-1 12.5 -1 12.5 -3 14 C-2.97679687 13.22914063 -2.95359375 12.45828125 -2.9296875 11.6640625 C-2.91164063 10.66117187 -2.89359375 9.65828125 -2.875 8.625 C-2.85179687 7.62726563 -2.82859375 6.62953125 -2.8046875 5.6015625 C-2.72783152 2.83737827 -2.72783152 2.83737827 -5 1 C-3 0 -3 0 0 0 Z " fill="#C0D1EB" transform="translate(409,414)"/>
<path d="M0 0 C0.66 0.33 1.32 0.66 2 1 C-2.63915695 6.11906974 -8.14482966 10.34731634 -14 14 C-14.99 14 -15.98 14 -17 14 C-11.54006063 9.02033308 -6.00073223 4.31660302 0 0 Z " fill="#C4D3EC" transform="translate(337,430)"/>
<path d="M0 0 C3.1323445 0.22373889 4.05671496 1.05986579 6.25 3.375 C9.03769486 7.81788869 8.32294243 12.9585098 8 18 C7.34 18.33 6.68 18.66 6 19 C5.93941406 18.09636719 5.87882812 17.19273437 5.81640625 16.26171875 C5.73261719 15.08222656 5.64882813 13.90273438 5.5625 12.6875 C5.48128906 11.51574219 5.40007812 10.34398437 5.31640625 9.13671875 C5.1132629 5.97409042 5.1132629 5.97409042 4 3 C1.99983534 1.79117904 1.99983534 1.79117904 0 1 C0 0.67 0 0.34 0 0 Z " fill="#8996AD" transform="translate(405,411)"/>
<path d="M0 0 C0.66 0.33 1.32 0.66 2 1 C0.13412277 2.32543706 -1.74314233 3.63485156 -3.625 4.9375 C-4.66914063 5.66839844 -5.71328125 6.39929688 -6.7890625 7.15234375 C-10.00598969 9.00344662 -12.33705863 9.65350555 -16 10 C-13.21758242 4.43516484 -13.21758242 4.43516484 -9.8359375 3.2265625 C-8.27216814 2.91584611 -6.6996747 2.64548512 -5.12109375 2.421875 C-2.71052382 2.08271139 -2.71052382 2.08271139 0 0 Z " fill="#9AA8C5" transform="translate(381,256)"/>
<path d="M0 0 C4.95621512 0.49562151 8.70281375 1.44215104 13 4 C13.33 4.66 13.66 5.32 14 6 C8.25 6.125 8.25 6.125 6 5 C6 4.34 6 3.68 6 3 C4.35 3 2.7 3 1 3 C0.67 2.01 0.34 1.02 0 0 Z " fill="#D6E1F7" transform="translate(496,339)"/>
<path d="M0 0 C5.08190913 1.53526127 8.42477886 4.67369658 12.3125 8.125 C12.95767578 8.68832031 13.60285156 9.25164063 14.26757812 9.83203125 C15.85026301 11.21541508 17.42585141 12.60691045 19 14 C15.1136865 14 14.14236735 12.76808101 11.1875 10.3125 C9.86685547 9.22195313 9.86685547 9.22195313 8.51953125 8.109375 C7.68808594 7.41328125 6.85664062 6.7171875 6 6 C5.34386719 5.46890625 4.68773437 4.9378125 4.01171875 4.390625 C2.65214181 3.28738834 1.32197234 2.14802861 0 1 C0 0.67 0 0.34 0 0 Z " fill="#9CACCB" transform="translate(656,621)"/>
<path d="M0 0 C0.66 0.66 1.32 1.32 2 2 C-2.455 4.97 -2.455 4.97 -7 8 C-7.66 7.01 -8.32 6.02 -9 5 C-6.88306276 2.56944242 -5.46478674 1.15492891 -2.375 0.125 C-1.59125 0.08375 -0.8075 0.0425 0 0 Z " fill="#909EBA" transform="translate(592,624)"/>
<path d="M0 0 C5.39882424 4.59474404 10.71333087 9.27676273 16 14 C11.8649704 14 10.56250475 12.26315315 7.4375 9.625 C6.46683594 8.81289063 5.49617188 8.00078125 4.49609375 7.1640625 C2.95267308 5.82594818 1.44441983 4.44441983 0 3 C0 2.01 0 1.02 0 0 Z " fill="#96A4C3" transform="translate(432,614)"/>
<path d="M0 0 C0.33 0.66 0.66 1.32 1 2 C-0.01320313 2.47179687 -0.01320313 2.47179687 -1.046875 2.953125 C-6.61895418 5.5616874 -6.61895418 5.5616874 -11.375 9.375 C-11.91125 9.91125 -12.4475 10.4475 -13 11 C-15.1015625 10.6015625 -15.1015625 10.6015625 -17 10 C-15.10812533 8.70254209 -13.21132656 7.4122624 -11.3125 6.125 C-10.25675781 5.40570313 -9.20101563 4.68640625 -8.11328125 3.9453125 C-5.43021294 2.26881562 -2.97159808 1.04750211 0 0 Z " fill="#C1D0EA" transform="translate(356,419)"/>
<path d="M0 0 C0 0.66 0 1.32 0 2 C-1.60064843 2.53154742 -3.20568874 3.04988353 -4.8125 3.5625 C-5.70582031 3.85253906 -6.59914063 4.14257812 -7.51953125 4.44140625 C-10 5 -10 5 -13 4 C-11.68 3.67 -10.36 3.34 -9 3 C-9 2.34 -9 1.68 -9 1 C-9.66 0.67 -10.32 0.34 -11 0 C-6.94952424 -1.35015859 -4.2079832 -0.62084998 0 0 Z " fill="#97A6C1" transform="translate(389,408)"/>
<path d="M0 0 C5.28 0.33 10.56 0.66 16 1 C16 1.66 16 2.32 16 3 C10.72 3 5.44 3 0 3 C0 2.01 0 1.02 0 0 Z " fill="#D1DEF8" transform="translate(448,336)"/>
<path d="M0 0 C-6.61538462 6 -6.61538462 6 -11 6 C-12.64453125 4.5 -12.64453125 4.5 -14 3 C-12.23358317 2.3012307 -10.46167336 1.61633417 -8.6875 0.9375 C-7.20830078 0.36322266 -7.20830078 0.36322266 -5.69921875 -0.22265625 C-3 -1 -3 -1 0 0 Z " fill="#A1B1CD" transform="translate(567,641)"/>
<path d="M0 0 C0 0.66 0 1.32 0 2 C-1.52952876 3.37482452 -3.12522906 4.67665897 -4.75 5.9375 C-5.63171875 6.62714844 -6.5134375 7.31679688 -7.421875 8.02734375 C-9.60521903 9.69793275 -11.79576052 11.35712058 -14 13 C-14.66 12.67 -15.32 12.34 -16 12 C-2.63106796 0 -2.63106796 0 0 0 Z " fill="#C5D7EE" transform="translate(686,364)"/>
<path d="M0 0 C0.66 0 1.32 0 2 0 C2.19118486 4.77962147 1.98834962 8.60470084 0 13 C-0.99 13.33 -1.98 13.66 -3 14 C-2.01 9.38 -1.02 4.76 0 0 Z " fill="#ACBDD6" transform="translate(730,312)"/>
<path d="M0 0 C0.66 0.33 1.32 0.66 2 1 C2 1.33 2 1.66 2 2 C2.66 2.33 3.32 2.66 4 3 C1.69 4.65 -0.62 6.3 -3 8 C-3.66 7.67 -4.32 7.34 -5 7 C-4.60196439 4.11424181 -4.20990931 3.17810487 -1.9375 1.25 C-1.298125 0.8375 -0.65875 0.425 0 0 Z " fill="#8F9BB6" transform="translate(366,262)"/>
<path d="M0 0 C4.49108752 1.42860919 7.46169316 3.93077292 10.8125 7.125 C11.31458984 7.59292969 11.81667969 8.06085937 12.33398438 8.54296875 C13.56189455 9.68901825 14.78178215 10.84365311 16 12 C11.6258594 12 9.45270123 9.30804972 6.3125 6.5625 C5.70599609 6.04623047 5.09949219 5.52996094 4.47460938 4.99804688 C2.95848982 3.69339957 1.47610115 2.34975868 0 1 C0 0.67 0 0.34 0 0 Z " fill="#6E7A90" transform="translate(700,651)"/>
<path d="M0 0 C0 0.66 0 1.32 0 2 C-2.484375 3.76171875 -2.484375 3.76171875 -5.75 5.6875 C-6.81734375 6.33074219 -7.8846875 6.97398437 -8.984375 7.63671875 C-12 9 -12 9 -14.390625 8.70703125 C-14.92171875 8.47371094 -15.4528125 8.24039063 -16 8 C-13.71125827 6.66141476 -11.41930344 5.32898986 -9.125 4 C-8.47402344 3.6184375 -7.82304688 3.236875 -7.15234375 2.84375 C-2.2265625 0 -2.2265625 0 0 0 Z " fill="#C7D6EF" transform="translate(657,765)"/>
<path d="M0 0 C1.29608947 0.93137592 2.58671632 1.8703566 3.875 2.8125 C4.59429688 3.33457031 5.31359375 3.85664062 6.0546875 4.39453125 C8 6 8 6 10 9 C6.56049636 8.38801624 4.48435515 7.07941153 1.75 4.9375 C1.04359375 4.38964844 0.3371875 3.84179688 -0.390625 3.27734375 C-0.92171875 2.85582031 -1.4528125 2.43429687 -2 2 C-1.34 1.34 -0.68 0.68 0 0 Z " fill="#D0DEF4" transform="translate(688,642)"/>
<path d="M0 0 C3.56764821 0.57619097 5.25159497 1.86969484 7.75 4.4375 C8.67039062 5.36369141 8.67039062 5.36369141 9.609375 6.30859375 C11 8 11 8 11 10 C7.81326038 8.59698853 5.67778594 6.92234929 3.25 4.4375 C2.63640625 3.81746094 2.0228125 3.19742188 1.390625 2.55859375 C0 1 0 1 0 0 Z " fill="#7F8CA4" transform="translate(715,664)"/>
<path d="M0 0 C1.43861294 0.08746284 2.87597508 0.19565348 4.3125 0.3125 C5.11300781 0.37050781 5.91351562 0.42851563 6.73828125 0.48828125 C9.36272334 1.08206694 10.30820672 1.95780294 12 4 C11.34 3.79375 10.68 3.5875 10 3.375 C5.90369892 2.86296237 2.95764021 3.85966299 -1 5 C-1 4.34 -1 3.68 -1 3 C-0.34 2.67 0.32 2.34 1 2 C0.67 1.34 0.34 0.68 0 0 Z " fill="#C5D3EF" transform="translate(635,608)"/>
<path d="M0 0 C5.82271337 -0.59720137 9.9209404 1.471757 15 4 C11.19068824 5.26977059 9.18381007 4.52074507 5.3125 3.5625 C3.54326172 3.13130859 3.54326172 3.13130859 1.73828125 2.69140625 C0.83464844 2.46324219 -0.06898438 2.23507813 -1 2 C-0.67 1.34 -0.34 0.68 0 0 Z " fill="#C7D6F2" transform="translate(622,233)"/>
<path d="M0 0 C1.49080078 0.02707031 1.49080078 0.02707031 3.01171875 0.0546875 C3.77097656 0.07789063 4.53023438 0.10109375 5.3125 0.125 C4.3225 1.61 4.3225 1.61 3.3125 3.125 C-0.6475 2.795 -4.6075 2.465 -8.6875 2.125 C-5.26655758 -0.15562828 -4.00562778 -0.09425007 0 0 Z " fill="#D9E6FB" transform="translate(495.6875,215.875)"/>
<path d="M0 0 C4.45673159 0.49871064 6.57687178 2.02004362 9.8125 5.0625 C10.60269531 5.79597656 11.39289062 6.52945313 12.20703125 7.28515625 C13.09455078 8.13400391 13.09455078 8.13400391 14 9 C11 9 11 9 8 7 C8 6.34 8 5.68 8 5 C6.8553125 4.5978125 6.8553125 4.5978125 5.6875 4.1875 C3.12619116 3.05575888 1.80307062 2.08776599 0 0 Z " fill="#C0D0EB" transform="translate(696,651)"/>
<path d="M0 0 C-1 2 -1 2 -3.6875 3.125 C-6.9579435 3.98889074 -9.63706182 4.16013991 -13 4 C-8.61350163 0.52105302 -5.57581513 -0.123907 0 0 Z " fill="#A9B7D5" transform="translate(434,232)"/>
<path d="M0 0 C3.06393013 -0.25532751 4.63233212 -0.21861333 7.3125 1.375 C7.869375 1.91125 8.42625 2.4475 9 3 C9 3.66 9 4.32 9 5 C4.545 4.01 4.545 4.01 0 3 C0 2.01 0 1.02 0 0 Z " fill="#CCD9F3" transform="translate(464,794)"/>
<path d="M0 0 C10.15317287 -0.63019694 10.15317287 -0.63019694 13.6875 2 C14.120625 2.66 14.55375 3.32 15 4 C11.68455701 4 9.01998611 3.32773835 5.8125 2.5 C4.72582031 2.2215625 3.63914062 1.943125 2.51953125 1.65625 C1.68808594 1.4396875 0.85664062 1.223125 0 1 C0 0.67 0 0.34 0 0 Z " fill="#8B99B3" transform="translate(637,607)"/>
<path d="M0 0 C0.66 0.33 1.32 0.66 2 1 C0.58829091 2.29708314 -0.82958196 3.58745978 -2.25 4.875 C-3.03890625 5.59429687 -3.8278125 6.31359375 -4.640625 7.0546875 C-6.72026168 8.76935483 -8.54419267 9.92980873 -11 11 C-9.52202738 7.32943063 -7.52384523 5.58914217 -4.375 3.25 C-3.55773437 2.63640625 -2.74046875 2.0228125 -1.8984375 1.390625 C-0.95871094 0.70226562 -0.95871094 0.70226562 0 0 Z " fill="#758096" transform="translate(334,430)"/>
<path d="M0 0 C0.99 0 1.98 0 3 0 C2.67 3.3 2.34 6.6 2 10 C1.34 10 0.68 10 0 10 C-0.33 10.66 -0.66 11.32 -1 12 C-0.67 8.04 -0.34 4.08 0 0 Z " fill="#9AA8C3" transform="translate(732,687)"/>
<path d="M0 0 C0.66 0.33 1.32 0.66 2 1 C0.37982158 2.33918806 -1.24629343 3.6711969 -2.875 5 C-4.23238281 6.11375 -4.23238281 6.11375 -5.6171875 7.25 C-8 9 -8 9 -10 9 C-8.60064115 5.59635112 -7.12995268 4.09193812 -4 2.1875 C-3.29875 1.74792969 -2.5975 1.30835938 -1.875 0.85546875 C-1.25625 0.57316406 -0.6375 0.29085938 0 0 Z " fill="#9EACCB" transform="translate(337,433)"/>
<path d="M0 0 C0.66 0.33 1.32 0.66 2 1 C-0.07143201 5.03384128 -1.96615872 6.92856799 -6 9 C-5.52797514 4.75177626 -3.03344482 2.80010291 0 0 Z " fill="#9EABC9" transform="translate(342,282)"/>
<path d="M0 0 C1.2065625 0.0309375 1.2065625 0.0309375 2.4375 0.0625 C1.4475 0.7225 0.4575 1.3825 -0.5625 2.0625 C-1.5525 1.7325 -2.5425 1.4025 -3.5625 1.0625 C-2.5625 0.0625 -2.5625 0.0625 0 0 Z M-3.5625 2.0625 C-6.11318845 4.41698165 -7.27267358 5.04577924 -10.8125 5.25 C-11.72 5.188125 -12.6275 5.12625 -13.5625 5.0625 C-10.44628718 1.94628718 -7.77425599 1.94866876 -3.5625 2.0625 Z " fill="#CCDAF5" transform="translate(452.5625,226.9375)"/>
<path d="M0 0 C0 0.66 0 1.32 0 2 C-0.66 2.66 -1.32 3.32 -2 4 C-3.32 4 -4.64 4 -6 4 C-6 3.34 -6 2.68 -6 2 C-8.31 2 -10.62 2 -13 2 C-13 1.67 -13 1.34 -13 1 C-11.20994059 0.63779734 -9.41787943 0.28547531 -7.625 -0.0625 C-6.12839844 -0.35833984 -6.12839844 -0.35833984 -4.6015625 -0.66015625 C-2 -1 -2 -1 0 0 Z " fill="#C2CFEA" transform="translate(554,799)"/>
<path d="M0 0 C4.98012761 1.50912958 8.24259942 4.55661849 12 8 C11.01 8.33 10.02 8.66 9 9 C7.49704815 7.69088122 5.99770689 6.37761608 4.5 5.0625 C3.6646875 4.33160156 2.829375 3.60070312 1.96875 2.84765625 C1.3190625 2.23792969 0.669375 1.62820313 0 1 C0 0.67 0 0.34 0 0 Z " fill="#7E8BA3" transform="translate(672,628)"/>
<path d="M0 0 C-5.29230769 3.07692308 -5.29230769 3.07692308 -8.875 2.6875 C-9.57625 2.460625 -10.2775 2.23375 -11 2 C-6.98764085 -0.6749061 -4.6342454 -1.48957888 0 0 Z " fill="#BECEE7" transform="translate(555,646)"/>
<path d="M0 0 C1.8871875 0.0309375 1.8871875 0.0309375 3.8125 0.0625 C3.8125 0.3925 3.8125 0.7225 3.8125 1.0625 C1.1725 1.3925 -1.4675 1.7225 -4.1875 2.0625 C-4.1875 2.7225 -4.1875 3.3825 -4.1875 4.0625 C-3.5275 4.3925 -2.8675 4.7225 -2.1875 5.0625 C-3.8375 4.7325 -5.4875 4.4025 -7.1875 4.0625 C-7.1875 3.0725 -7.1875 2.0825 -7.1875 1.0625 C-4.43671116 0.14557039 -2.82801087 -0.04636083 0 0 Z " fill="#A5B2CF" transform="translate(412.1875,339.9375)"/>
<path d="M0 0 C0.78375 0.04125 1.5675 0.0825 2.375 0.125 C1.12953595 3.86139216 -0.25904953 4.31256513 -3.625 6.125 C-4.25 4.25 -4.25 4.25 -4.625 2.125 C-2.625 0.125 -2.625 0.125 0 0 Z " fill="#9CA9C1" transform="translate(716.625,719.875)"/>
<path d="M0 0 C2.64 1.98 5.28 3.96 8 6 C7.67 6.99 7.34 7.98 7 9 C4.36 6.69 1.72 4.38 -1 2 C-0.67 1.34 -0.34 0.68 0 0 Z " fill="#7C87A2" transform="translate(439,618)"/>
<path d="M0 0 C4.37859255 0.50522222 6.81651224 3.17827222 10 6 C9.34 6.66 8.68 7.32 8 8 C6.66372225 6.85760183 5.33104612 5.71098945 4 4.5625 C3.2575 3.92441406 2.515 3.28632812 1.75 2.62890625 C1.1725 2.09136719 0.595 1.55382812 0 1 C0 0.67 0 0.34 0 0 Z " fill="#7F8AA2" transform="translate(651,611)"/>
<path d="M0 0 C0.66 0.33 1.32 0.66 2 1 C-0.97 3.64 -3.94 6.28 -7 9 C-7.66 8.67 -8.32 8.34 -9 8 C-6.03 5.36 -3.06 2.72 0 0 Z " fill="#BFD2EB" transform="translate(696,354)"/>
<path d="M0 0 C0 3.80345877 -1.13786331 4.77701015 -3.5 7.6875 C-4.1496875 8.49574219 -4.799375 9.30398438 -5.46875 10.13671875 C-5.9740625 10.75160156 -6.479375 11.36648438 -7 12 C-7.66 11.34 -8.32 10.68 -9 10 C-6.03 6.7 -3.06 3.4 0 0 Z " fill="#838DA6" transform="translate(311,312)"/>
<path d="M0 0 C2.46800047 1.15173355 4.04783565 2.04783565 6 4 C6 4.99 6 5.98 6 7 C3.5625 6.3125 3.5625 6.3125 1 5 C0.1875 2.375 0.1875 2.375 0 0 Z " fill="#8894B0" transform="translate(447,625)"/>
<path d="M0 0 C0.66 0.33 1.32 0.66 2 1 C-1.465 3.97 -1.465 3.97 -5 7 C-5.66 6.67 -6.32 6.34 -7 6 C-4.87944386 2.8191658 -3.36949443 1.68474722 0 0 Z " fill="#C5D4ED" transform="translate(701,733)"/>
<path d="M0 0 C0 0.66 0 1.32 0 2 C-1.75 3.5078125 -1.75 3.5078125 -4 5.125 C-4.7425 5.66382813 -5.485 6.20265625 -6.25 6.7578125 C-6.8275 7.16773438 -7.405 7.57765625 -8 8 C-8.66 7.67 -9.32 7.34 -10 7 C-8.71372289 5.82739389 -7.42080217 4.6620717 -6.125 3.5 C-5.04605469 2.52546875 -5.04605469 2.52546875 -3.9453125 1.53125 C-2 0 -2 0 0 0 Z " fill="#C2D4EC" transform="translate(669,378)"/>
<path d="M0 0 C4.37859255 0.50522222 6.81651224 3.17827222 10 6 C9.01 6.33 8.02 6.66 7 7 C5.17578125 5.8203125 5.17578125 5.8203125 3.3125 4.125 C2.68988281 3.57070313 2.06726563 3.01640625 1.42578125 2.4453125 C0 1 0 1 0 0 Z " fill="#6B778E" transform="translate(703,277)"/>
<path d="M0 0 C2.31 0.33 4.62 0.66 7 1 C5.6875 2.5 5.6875 2.5 4 4 C3.01 4 2.02 4 1 4 C0.67 2.68 0.34 1.36 0 0 Z " fill="#D4E2F9" transform="translate(591,222)"/>
<path d="M0 0 C0.6875 1.6875 0.6875 1.6875 1 4 C-0.4375 6.75 -0.4375 6.75 -2 9 C-2.6875 7.3125 -2.6875 7.3125 -3 5 C-1.5625 2.25 -1.5625 2.25 0 0 Z " fill="#C5D4EF" transform="translate(407,431)"/>
<path d="M0 0 C2.66753731 0.36793618 3.81998328 0.81998328 5.75 2.75 C7.21079991 5.37943983 7.24687966 7.0374441 7 10 C5.79371992 7.66785852 4.8345262 5.50357861 4 3 C1.99983534 1.79117904 1.99983534 1.79117904 0 1 C0 0.67 0 0.34 0 0 Z " fill="#79859C" transform="translate(405,411)"/>
<path d="M0 0 C0.33 0.66 0.66 1.32 1 2 C0.22265625 3.7265625 0.22265625 3.7265625 -0.9375 5.625 C-1.618125 6.73875 -2.29875 7.8525 -3 9 C-3.89674777 6.48910624 -4.13172674 5.35464891 -3.1875 2.8125 C-2 1 -2 1 0 0 Z " fill="#A0AECF" transform="translate(286,351)"/>
<path d="M0 0 C-0.99 0.33 -1.98 0.66 -3 1 C-3 1.66 -3 2.32 -3 3 C-5.60582371 3.93065133 -6.64198224 4.14917407 -9.25 3.0625 C-9.8275 2.711875 -10.405 2.36125 -11 2 C-7.17679443 0.57741188 -4.08718695 -0.24042276 0 0 Z " fill="#9BA7C4" transform="translate(390,345)"/>
<path d="M0 0 C6.75 0.75 6.75 0.75 9 3 C6.36 3 3.72 3 1 3 C0.67 2.01 0.34 1.02 0 0 Z " fill="#C6D3EF" transform="translate(496,339)"/>
<path d="M0 0 C0 0.33 0 0.66 0 1 C-1.45635371 1.22174933 -2.91522956 1.42698698 -4.375 1.625 C-5.18710937 1.74101563 -5.99921875 1.85703125 -6.8359375 1.9765625 C-7.55007813 1.98429688 -8.26421875 1.99203125 -9 2 C-9.66 1.34 -10.32 0.68 -11 0 C-7.01803543 -1.05404945 -4.01804691 -0.84098656 0 0 Z " fill="#8E9BB5" transform="translate(542,648)"/>
<path d="M0 0 C2.31 0.66 4.62 1.32 7 2 C6.34 2.66 5.68 3.32 5 4 C1.875 3.625 1.875 3.625 -1 3 C-0.67 2.01 -0.34 1.02 0 0 Z " fill="#A2AFCF" transform="translate(547,355)"/>
<path d="M0 0 C2.475 0.99 2.475 0.99 5 2 C4.67 3.65 4.34 5.3 4 7 C2.35 5.35 0.7 3.7 -1 2 C-0.67 1.34 -0.34 0.68 0 0 Z " fill="#C4D3EC" transform="translate(648,611)"/>
<path d="M0 0 C0.598125 0.350625 1.19625 0.70125 1.8125 1.0625 C-2.8125 3.1875 -2.8125 3.1875 -6.1875 2.0625 C-4.66896708 -0.97456585 -3.05066334 -1.30742714 0 0 Z " fill="#B0BDDA" transform="translate(366.1875,351.9375)"/>
<path d="M0 0 C0 3 0 3 -1.3125 4.38671875 C-2.875 5.59114583 -4.4375 6.79557292 -6 8 C-6 6.68 -6 5.36 -6 4 C-3.5625 2.3125 -3.5625 2.3125 -1 1 C-0.67 0.67 -0.34 0.34 0 0 Z " fill="#97A4C3" transform="translate(318,308)"/>
<path d="M0 0 C0.66 0.33 1.32 0.66 2 1 C1.34 2.32 0.68 3.64 0 5 C-2 5 -4 5 -6 5 C-4.02 3.35 -2.04 1.7 0 0 Z " fill="#A2B0CE" transform="translate(352,274)"/>
<path d="M0 0 C-0.99 1.485 -0.99 1.485 -2 3 C-4.31 2.67 -6.62 2.34 -9 2 C-5.5647952 -0.29013653 -4.014669 -0.17842973 0 0 Z " fill="#CBD9F3" transform="translate(466,222)"/>
<path d="M0 0 C3.3 0.33 6.6 0.66 10 1 C6.23312136 2.88343932 4.97041037 3.22057835 1 3 C0.67 2.01 0.34 1.02 0 0 Z " fill="#C7D3F0" transform="translate(569,219)"/>
<path d="M0 0 C0.99 0.495 0.99 0.495 2 1 C1.34 1.66 0.68 2.32 0 3 C0 2.01 0 1.02 0 0 Z " fill="#BAC4DD" transform="translate(288,474)"/>
<path d="M0 0 C3 1 3 1 3 1 Z " fill="#AAB6CD" transform="translate(515,807)"/>
<path d="" fill="#B3BDD5" transform="translate(0,0)"/>
<path d="M0 0 C3 1 3 1 3 1 Z " fill="#B8C3D9" transform="translate(440,224)"/>
<path d="M0 0 C2 1 2 1 2 1 Z " fill="#ABB5D0" transform="translate(512,807)"/>
<path d="M0 0 C2 1 2 1 2 1 Z " fill="#ADB7D0" transform="translate(492,806)"/>
<path d="M0 0 C2 1 2 1 2 1 Z " fill="#B2BDD4" transform="translate(584,799)"/>
<path d="M0 0 C2 1 2 1 2 1 Z " fill="#B5BFD6" transform="translate(612,790)"/>
<path d="" fill="#ACB8D1" transform="translate(0,0)"/>
<path d="" fill="#A3ABC6" transform="translate(0,0)"/>
<path d="M0 0 C2 1 2 1 2 1 Z " fill="#A6B1CA" transform="translate(281,661)"/>
<path d="" fill="#ABB5CF" transform="translate(0,0)"/>
<path d="" fill="#A6B2CB" transform="translate(0,0)"/>
<path d="M0 0 C2 1 2 1 2 1 Z " fill="#B3BED5" transform="translate(405,408)"/>
<path d="M0 0 C2 1 2 1 2 1 Z " fill="#A7B2CD" transform="translate(516,350)"/>
<path d="M0 0 C2 1 2 1 2 1 Z " fill="#B6C2DA" transform="translate(468,343)"/>
<path d="M0 0 C2 1 2 1 2 1 Z " fill="#B3BFD7" transform="translate(401,240)"/>
<path d="M0 0 C2 1 2 1 2 1 Z " fill="#B1BBD2" transform="translate(551,211)"/>
<path d="" fill="#5B5E5F" transform="translate(0,0)"/>
<path d="" fill="#686B6F" transform="translate(0,0)"/>
<path d="" fill="#AEB8CF" transform="translate(0,0)"/>
<path d="" fill="#ADB7CE" transform="translate(0,0)"/>
<path d="" fill="#B1BDD4" transform="translate(0,0)"/>
<path d="" fill="#B4BED5" transform="translate(0,0)"/>
<path d="" fill="#B0BAD1" transform="translate(0,0)"/>
<path d="" fill="#B2BBD1" transform="translate(0,0)"/>
<path d="" fill="#B4BFD8" transform="translate(0,0)"/>
<path d="" fill="#AEBCD4" transform="translate(0,0)"/>
<path d="" fill="#B3BDD4" transform="translate(0,0)"/>
<path d="" fill="#B3BED5" transform="translate(0,0)"/>
<path d="" fill="#B0BCD3" transform="translate(0,0)"/>
<path d="" fill="#ADB7D2" transform="translate(0,0)"/>
<path d="" fill="#ADB9CF" transform="translate(0,0)"/>
<path d="" fill="#B9C6DC" transform="translate(0,0)"/>
<path d="" fill="#B3BFD4" transform="translate(0,0)"/>
<path d="" fill="#A8B5CE" transform="translate(0,0)"/>
<path d="" fill="#A8B6CF" transform="translate(0,0)"/>
<path d="" fill="#ACB8D0" transform="translate(0,0)"/>
<path d="" fill="#ADB9D2" transform="translate(0,0)"/>
<path d="" fill="#ADB8D3" transform="translate(0,0)"/>
<path d="" fill="#A4B0C8" transform="translate(0,0)"/>
<path d="" fill="#A7B6CE" transform="translate(0,0)"/>
<path d="" fill="#A8B4CD" transform="translate(0,0)"/>
<path d="" fill="#B0BBD2" transform="translate(0,0)"/>
<path d="" fill="#A8B5D2" transform="translate(0,0)"/>
<path d="" fill="#A7B1CB" transform="translate(0,0)"/>
<path d="" fill="#B3BED3" transform="translate(0,0)"/>
<path d="" fill="#A5AFC7" transform="translate(0,0)"/>
<path d="" fill="#A5AFC9" transform="translate(0,0)"/>
<path d="" fill="#AEBAD2" transform="translate(0,0)"/>
<path d="" fill="#A2ADC6" transform="translate(0,0)"/>
<path d="" fill="#A5AEC7" transform="translate(0,0)"/>
<path d="" fill="#A4ADC9" transform="translate(0,0)"/>
<path d="" fill="#A1AAC5" transform="translate(0,0)"/>
<path d="" fill="#9EABC4" transform="translate(0,0)"/>
<path d="" fill="#9FABC5" transform="translate(0,0)"/>
<path d="" fill="#A3ADC6" transform="translate(0,0)"/>
<path d="" fill="#A6B0CA" transform="translate(0,0)"/>
<path d="" fill="#A6B0CD" transform="translate(0,0)"/>
<path d="" fill="#ABB8CF" transform="translate(0,0)"/>
<path d="" fill="#AAB6CE" transform="translate(0,0)"/>
<path d="" fill="#AEBBD2" transform="translate(0,0)"/>
<path d="" fill="#AAB6CC" transform="translate(0,0)"/>
<path d="" fill="#A4B1CC" transform="translate(0,0)"/>
<path d="" fill="#AFBAD1" transform="translate(0,0)"/>
<path d="" fill="#B5C0D7" transform="translate(0,0)"/>
<path d="" fill="#B2BCD6" transform="translate(0,0)"/>
<path d="" fill="#B2BED7" transform="translate(0,0)"/>
<path d="" fill="#A2ACC7" transform="translate(0,0)"/>
<path d="" fill="#B4BED7" transform="translate(0,0)"/>
<path d="" fill="#B3BED7" transform="translate(0,0)"/>
<path d="" fill="#B5BFD8" transform="translate(0,0)"/>
<path d="" fill="#B8C3DA" transform="translate(0,0)"/>
<path d="" fill="#B9C4DF" transform="translate(0,0)"/>
<path d="" fill="#B8C1D8" transform="translate(0,0)"/>
<path d="" fill="#BCC5DE" transform="translate(0,0)"/>
<path d="" fill="#B9C2DB" transform="translate(0,0)"/>
<path d="" fill="#B8C2DC" transform="translate(0,0)"/>
<path d="" fill="#BCC8DD" transform="translate(0,0)"/>
<path d="" fill="#BDC9DE" transform="translate(0,0)"/>
<path d="" fill="#BCC7E1" transform="translate(0,0)"/>
<path d="" fill="#BEC8E0" transform="translate(0,0)"/>
<path d="" fill="#B1BAD2" transform="translate(0,0)"/>
<path d="" fill="#B8C5DD" transform="translate(0,0)"/>
<path d="" fill="#B1BCD5" transform="translate(0,0)"/>
<path d="" fill="#A4B0C7" transform="translate(0,0)"/>
<path d="" fill="#A1ADC7" transform="translate(0,0)"/>
<path d="" fill="#A4AFC8" transform="translate(0,0)"/>
<path d="" fill="#A0ADC6" transform="translate(0,0)"/>
<path d="" fill="#BAC5DE" transform="translate(0,0)"/>
<path d="" fill="#A9B2CC" transform="translate(0,0)"/>
<path d="" fill="#B7C2DC" transform="translate(0,0)"/>
<path d="" fill="#A2ACC9" transform="translate(0,0)"/>
<path d="" fill="#ADB9CE" transform="translate(0,0)"/>
<path d="" fill="#A1ABC7" transform="translate(0,0)"/>
<path d="" fill="#B8C1DD" transform="translate(0,0)"/>
<path d="" fill="#A8B4CD" transform="translate(0,0)"/>
<path d="" fill="#AEB8D2" transform="translate(0,0)"/>
<path d="" fill="#B8C3DC" transform="translate(0,0)"/>
<path d="" fill="#B8C4DC" transform="translate(0,0)"/>
<path d="" fill="#B8C4DC" transform="translate(0,0)"/>
<path d="" fill="#A9B3CD" transform="translate(0,0)"/>
<path d="" fill="#A6B4CD" transform="translate(0,0)"/>
<path d="" fill="#ACB8CF" transform="translate(0,0)"/>
<path d="" fill="#ADB9D1" transform="translate(0,0)"/>
<path d="" fill="#A9B4CD" transform="translate(0,0)"/>
<path d="" fill="#B2BAD6" transform="translate(0,0)"/>
<path d="" fill="#AEBBD6" transform="translate(0,0)"/>
<path d="" fill="#B0BBD6" transform="translate(0,0)"/>
<path d="" fill="#A5B4D0" transform="translate(0,0)"/>
<path d="" fill="#B2BFD4" transform="translate(0,0)"/>
<path d="" fill="#B3BED7" transform="translate(0,0)"/>
<path d="" fill="#B5C0D8" transform="translate(0,0)"/>
<path d="" fill="#AFBCD1" transform="translate(0,0)"/>
<path d="" fill="#B9C3DD" transform="translate(0,0)"/>
<path d="" fill="#A1AEC8" transform="translate(0,0)"/>
<path d="" fill="#B6C1D9" transform="translate(0,0)"/>
<path d="" fill="#ABB6CD" transform="translate(0,0)"/>
<path d="" fill="#A8B4CC" transform="translate(0,0)"/>
<path d="" fill="#B0BCD2" transform="translate(0,0)"/>
<path d="" fill="#B8C0D9" transform="translate(0,0)"/>
<path d="" fill="#B1BCD1" transform="translate(0,0)"/>
<path d="" fill="#B8C2D7" transform="translate(0,0)"/>
</svg>
